<?xml version="1.0" encoding="UTF-8"?>
<svg version="1.1" xmlns="http://www.w3.org/2000/svg" width="500" height="500">
<path d="M0 0 C0.8652832 0.03577148 1.73056641 0.07154297 2.62207031 0.10839844 C47.72719693 2.29424999 89.98219363 21.56200506 123 52 C123.5784668 52.53318848 124.15693359 53.06637695 124.75292969 53.61572266 C162.1575607 88.55490778 182.42508739 137.82134538 184.1875 188.58984375 C185.30470915 241.11603952 165.19111772 289.58725483 129.34960938 327.56689453 C128.11448671 328.87843036 126.89248243 330.20228837 125.671875 331.52734375 C114.73718704 343.00132755 101.61157172 352.26474438 87.81640625 359.98242188 C86.02350884 360.98682999 84.24656029 362.01606038 82.46875 363.046875 C40.89455035 386.65888109 -12.3874116 392.43795666 -58.43994141 380.07666016 C-90.30716638 370.69817022 -118.51417624 355.34224893 -142.56787109 332.36474609 C-143.94699053 331.05051533 -145.34235213 329.75339339 -146.73828125 328.45703125 C-181.69582631 295.0171799 -200.69226138 245.83438419 -202.1875 197.99609375 C-203.15944006 146.47823441 -184.50712569 97.41860227 -149 60 C-148.09636719 59.04351562 -147.19273437 58.08703125 -146.26171875 57.1015625 C-139.07101799 49.62676378 -131.37722848 43.10587026 -123 37 C-122.02281006 36.28094482 -122.02281006 36.28094482 -121.02587891 35.54736328 C-94.86506372 16.53328409 -62.22182747 3.28015756 -29.8125 0.8125 C-28.82056641 0.73354492 -27.82863281 0.65458984 -26.80664062 0.57324219 C-17.84762897 -0.09220209 -8.97649599 -0.37939232 0 0 Z M-6.125 143.5 C-16.17766637 156.61128697 -21.11269451 172.64030495 -22 189 C-22.04125 189.67804688 -22.0825 190.35609375 -22.125 191.0546875 C-22.76199322 212.15508785 -16.06954508 232.18851124 -2 248 C-1.09314453 249.04800781 -1.09314453 249.04800781 -0.16796875 250.1171875 C12.90764251 264.26637526 32.64574696 271.2122282 51.54296875 272.3203125 C72.63158262 273.0755761 93.14960076 267.43463543 109 253 C109.75667969 252.32324219 110.51335937 251.64648438 111.29296875 250.94921875 C120.63221214 242.14185856 126.95030115 231.14909655 131 219 C131 207.45 131 195.9 131 184 C104.27 184 77.54 184 50 184 C48.7923863 196.48443197 48.7923863 196.48443197 49 211 C64.84 211 80.68 211 97 211 C89.76824835 225.46350329 86.518829 231.8177631 72 237 C59.46711764 240.32805952 45.93387289 238.44669401 34.75 232.25 C25.88522827 226.58986406 20.52073774 218.10455419 17.6875 208 C15.02677502 193.59626767 16.14525679 177.66881972 24.28515625 165.25 C30.56622541 157.00877942 38.86347668 152.41436278 49.015625 150.40234375 C59.65748975 149.19050837 71.17416359 150.49675212 80 157 C80.36730225 157.64227539 80.73460449 158.28455078 81.11303711 158.94628906 C82.86153349 161.75409347 84.18026543 163.21244653 87 165 C93.81897853 166.41349312 101.02562046 165.74737376 107.9375 165.5 C109.88078645 165.45984209 111.82415222 165.42334536 113.76757812 165.390625 C118.51368481 165.30276141 123.25597007 165.16488841 128 165 C123.119497 147.83857495 113.72932674 134.04012153 98 125 C94.40148546 123.13693928 90.76036561 121.50748385 87 120 C86.27296875 119.70222656 85.5459375 119.40445313 84.796875 119.09765625 C52.51813995 107.08279376 15.98823232 118.11073326 -6.125 143.5 Z M-83 117 C-83.01458252 120.26003906 -83.02916504 123.52007812 -83.04418945 126.87890625 C-83.09456519 137.65970206 -83.16116576 148.4403539 -83.23571491 159.2210083 C-83.28040939 165.756213 -83.31966784 172.29135549 -83.34643555 178.82666016 C-83.37247729 185.13561718 -83.4128866 191.44433469 -83.46318626 197.75314331 C-83.47984894 200.15799985 -83.49136693 202.56289781 -83.49761391 204.96780396 C-83.50726115 208.34076952 -83.53532938 211.71312313 -83.56762695 215.0859375 C-83.56547432 216.57163994 -83.56547432 216.57163994 -83.5632782 218.08735657 C-83.65841471 225.12986519 -84.28319845 231.34946191 -89.5625 236.5 C-94.18277283 238.51611905 -98.03440507 238.79126553 -103 238 C-107.97154641 235.64981442 -110.12243199 233.13860719 -112 228 C-112.495 224.04 -112.495 224.04 -113 220 C-125.21 220 -137.42 220 -150 220 C-150 234.76433649 -146.75653869 248.24346131 -136 259 C-121.09422128 271.46817957 -104.6314414 272.99315479 -86 272 C-82.06136746 271.44789588 -78.65783658 270.54111897 -75 269 C-74.14535156 268.64808594 -73.29070312 268.29617188 -72.41015625 267.93359375 C-61.91759996 263.15277487 -53.91251967 255.66746392 -49.77734375 244.78125 C-46.75528674 235.33596788 -45.85151247 226.86446757 -45.88647461 217.01586914 C-45.88632858 215.93220062 -45.88618256 214.8485321 -45.8860321 213.73202515 C-45.88672624 210.1663815 -45.89449523 206.60079072 -45.90234375 203.03515625 C-45.9042097 200.55651376 -45.90563277 198.0778709 -45.90663147 195.59922791 C-45.91044268 189.08746313 -45.92026103 182.57572078 -45.93133545 176.06396484 C-45.94212271 169.41439233 -45.94613553 162.76481326 -45.95117188 156.11523438 C-45.96188456 143.07681149 -45.97947005 130.03841113 -46 117 C-58.21 117 -70.42 117 -83 117 Z " fill="#8A8A8A" transform="translate(259,57)"/>
<path d="M0 0 C0.76316528 0.00359528 1.52633057 0.00719055 2.31262207 0.01089478 C3.51253029 0.01067574 3.51253029 0.01067574 4.73667908 0.01045227 C7.39344958 0.01115161 10.05015086 0.01894498 12.70690918 0.02676392 C14.54393984 0.02862802 16.38097099 0.03005196 18.21800232 0.03105164 C23.06284955 0.03487742 27.90766701 0.04470821 32.75250244 0.05575562 C37.69237871 0.06596845 42.63225978 0.07054898 47.57214355 0.07559204 C57.27202646 0.08633042 66.97188722 0.10340756 76.67175293 0.12442017 C76.67175293 0.45442017 76.67175293 0.78442017 76.67175293 1.12442017 C49.94175293 1.12442017 23.21175293 1.12442017 -4.32824707 1.12442017 C-4.32824707 5.08442017 -4.32824707 9.04442017 -4.32824707 13.12442017 C-4.65824707 18.07442017 -4.98824707 23.02442017 -5.32824707 28.12442017 C10.51175293 28.12442017 26.35175293 28.12442017 42.67175293 28.12442017 C41.77604982 32.6029357 41.4217432 33.89617072 38.67175293 37.12442017 C39.54675293 32.37442017 39.54675293 32.37442017 40.67175293 30.12442017 C39.35457275 30.16518677 38.03739258 30.20595337 36.68029785 30.24795532 C31.79970568 30.39627347 26.91881666 30.53097225 22.03771973 30.66152954 C19.92400663 30.71997771 17.81039271 30.78213379 15.69689941 30.84805298 C12.66135717 30.94208996 9.62570961 31.02284617 6.58972168 31.10098267 C5.64275925 31.13317902 4.69579681 31.16537537 3.72013855 31.19854736 C2.39910881 31.22880508 2.39910881 31.22880508 1.0513916 31.25967407 C0.27639816 31.28188019 -0.49859528 31.3040863 -1.29707336 31.32696533 C-3.32824707 31.12442017 -3.32824707 31.12442017 -6.32824707 29.12442017 C-6.68469238 26.34292603 -6.68469238 26.34292603 -6.65637207 22.83926392 C-6.65121582 21.5869397 -6.64605957 20.33461548 -6.64074707 19.04434204 C-6.62012207 17.73014282 -6.59949707 16.4159436 -6.57824707 15.06192017 C-6.57309082 13.74385376 -6.56793457 12.42578735 -6.56262207 11.06777954 C-6.47149452 0.01286804 -6.47149452 0.01286804 0 0 Z " fill="#707070" transform="translate(313.3282470703125,239.87557983398438)"/>
<path d="M0 0 C24.255 0.495 24.255 0.495 49 1 C48.10429689 5.47851553 47.74999027 6.77175056 45 10 C45.875 5.25 45.875 5.25 47 3 C45.68281982 3.0407666 44.36563965 3.0815332 43.00854492 3.12353516 C38.12795275 3.2718533 33.24706373 3.40655208 28.3659668 3.53710938 C26.2522537 3.59555754 24.13863978 3.65771362 22.02514648 3.72363281 C18.98960424 3.81766979 15.95395668 3.89842601 12.91796875 3.9765625 C11.97100632 4.00875885 11.02404388 4.0409552 10.04838562 4.0741272 C8.72735588 4.10438492 8.72735588 4.10438492 7.37963867 4.13525391 C6.60464523 4.15746002 5.82965179 4.17966614 5.03117371 4.20254517 C3 4 3 4 0 2 C0 1.34 0 0.68 0 0 Z " fill="#808080" transform="translate(307,267)"/>
<path d="M0 0 C-1.98 0.99 -1.98 0.99 -4 2 C-4 2.66 -4 3.32 -4 4 C-7 5 -7 5 -10 5 C-11.86496576 6.46270571 -11.86496576 6.46270571 -13.625 8.375 C-14.54152344 9.31472656 -14.54152344 9.31472656 -15.4765625 10.2734375 C-17.07494756 11.93619954 -17.07494756 11.93619954 -18 14 C-20.0625 14.625 -20.0625 14.625 -22 15 C-18.12938333 8.38769653 -8.64207732 -3.65626348 0 0 Z " fill="#838383" transform="translate(303,210)"/>
<path d="M0 0 C-0.65179251 3.81583379 -1.46898975 6.02881405 -4 9 C-3.125 4.25 -3.125 4.25 -2 2 C-9.59 2 -17.18 2 -25 2 C-25 1.67 -25 1.34 -25 1 C-16.64399592 -0.10102642 -8.41192037 -0.10094304 0 0 Z " fill="#747475" transform="translate(356,268)"/>
<path d="M0 0 C0 0.33 0 0.66 0 1 C-1.75376953 1.19916016 -1.75376953 1.19916016 -3.54296875 1.40234375 C-5.09115839 1.58062013 -6.63933478 1.75901161 -8.1875 1.9375 C-8.95642578 2.02451172 -9.72535156 2.11152344 -10.51757812 2.20117188 C-14.39327873 2.6502874 -18.17448213 3.22380797 -22 4 C-23.9996441 4.03772913 -26.00054061 4.04649906 -28 4 C-27.67 3.34 -27.34 2.68 -27 2 C-18.16387406 -0.28301819 -9.05939651 -0.24448147 0 0 Z " fill="#7C7C7C" transform="translate(241,58)"/>
<path d="M0 0 C0.99 0 1.98 0 3 0 C1.3341708 6.16356805 -1.87805286 11.48259656 -5 17 C-5.33 16.34 -5.66 15.68 -6 15 C-5.0390625 12.5390625 -5.0390625 12.5390625 -3.625 9.625 C-2.08278435 6.42856421 -0.71047717 3.48629494 0 0 Z " fill="#7D7D7D" transform="translate(422,330)"/>
<path d="M0 0 C1.051875 0.61875 2.10375 1.2375 3.1875 1.875 C5.42740129 3.16987194 7.43272795 4.1599212 9.875 5.0625 C10.926875 5.5265625 10.926875 5.5265625 12 6 C12.33 6.99 12.66 7.98 13 9 C8.33138019 7.39516194 3.90741833 5.02509806 0 2 C0 1.34 0 0.68 0 0 Z " fill="#7E7E7E" transform="translate(137,405)"/>
<path d="M0 0 C1 3 1 3 0.375 5.375 C-1.27960884 8.53379869 -3.39000967 10.59606154 -6 13 C-4.58707905 8.1725201 -2.57025846 4.2837641 0 0 Z " fill="#818181" transform="translate(388,281)"/>
<path d="M0 0 C0 0.99 0 1.98 0 3 C-3.3 3 -6.6 3 -10 3 C-9 1 -9 1 -7.25 0.375 C-4.79549443 -0.03408426 -2.4840589 -0.06900164 0 0 Z " fill="#848283" transform="translate(223,59)"/>
<path d="M0 0 C0.66 0.33 1.32 0.66 2 1 C3.70702735 1.06996014 5.41668003 1.08440154 7.125 1.0625 C8.03507813 1.05347656 8.94515625 1.04445313 9.8828125 1.03515625 C10.93082031 1.01775391 10.93082031 1.01775391 12 1 C10 3 10 3 7.6875 3.265625 C6.800625 3.26046875 5.91375 3.2553125 5 3.25 C3.6696875 3.25773437 3.6696875 3.25773437 2.3125 3.265625 C0 3 0 3 -2 1 C-1.34 0.67 -0.68 0.34 0 0 Z " fill="#767676" transform="translate(156,293)"/>
<path d="M0 0 C2.32590854 3.63423209 2.16265833 6.77088331 2 11 C0.4375 9.4375 0.4375 9.4375 -1 7 C-0.6875 3.25 -0.6875 3.25 0 0 Z " fill="#808080" transform="translate(237,261)"/>
</svg>
