<?xml version="1.0" encoding="UTF-8"?>
<svg version="1.1" xmlns="http://www.w3.org/2000/svg" width="500" height="500">
<path d="M0 0 C1.71675263 -0.00083002 3.43350516 -0.00329442 5.1502533 -0.00730896 C8.73526134 -0.01015645 12.319641 0.00443221 15.90454102 0.03198242 C20.48314653 0.06608958 25.06063137 0.06002857 29.63929081 0.04131985 C33.17997971 0.03071637 36.72041099 0.03971749 40.26107597 0.05470467 C41.94864574 0.05986068 43.6362427 0.05943626 45.32380867 0.05315971 C62.98972363 0.01210375 62.98972363 0.01210375 70.36328125 6.375 C76.10438943 13.55968162 77.45418178 20.0416508 77.48510742 29.22583008 C77.49148727 30.5176973 77.49786713 31.80956451 77.50444031 33.14057922 C77.50596943 34.5390316 77.50708315 35.93748448 77.5078125 37.3359375 C77.51103039 38.78553805 77.51439485 40.23513827 77.51789856 41.68473816 C77.52387188 44.71829989 77.52574034 47.7518332 77.52514648 50.78540039 C77.52504503 54.65187707 77.5386884 58.51816945 77.55591869 62.38460255 C77.56709724 65.37795328 77.56906389 68.37126029 77.56853676 71.36462975 C77.5697084 72.78902508 77.5740838 74.21342186 77.58186913 75.6377964 C77.63915876 87.20261431 77.61050728 96.86120765 69.33984375 105.62890625 C60.92994189 112.89200331 49.20397073 111.92677636 38.71484375 111.89453125 C37.31819593 111.89588244 35.92154857 111.89782673 34.52490234 111.90032959 C31.61356072 111.90325953 28.70234275 111.89905248 25.79101562 111.88964844 C22.08615267 111.87825512 18.38157965 111.88482611 14.67672729 111.89679337 C11.79742302 111.90406994 8.91818585 111.90169764 6.03887939 111.89653778 C4.01729135 111.89458199 1.99570054 111.90058468 -0.02587891 111.90679932 C-19.27158898 111.8096019 -19.27158898 111.8096019 -26.90234375 105.4609375 C-35.77951754 96.20894971 -34.81768031 84.68918104 -34.828125 72.671875 C-34.83134626 71.31960517 -34.83471095 69.96733567 -34.83821106 68.61506653 C-34.84417134 65.7901631 -34.84605417 62.96529012 -34.84545898 60.14038086 C-34.84535755 56.54991963 -34.85900434 52.95965697 -34.87623119 49.36924267 C-34.88743979 46.57826367 -34.88937549 43.78733135 -34.88884926 40.99633217 C-34.89057724 39.03848931 -34.90135962 37.08066101 -34.91239929 35.12284851 C-34.86087144 14.77997446 -34.86087144 14.77997446 -28.44444275 7.33592224 C-20.15752074 -0.59212541 -10.78536351 -0.09463687 0 0 Z " fill="#CFCFCF" transform="translate(228.66015625,194.37109375)"/>
<path d="M0 0 C1.12298744 -0.01007584 1.12298744 -0.01007584 2.2686615 -0.02035522 C4.73540955 -0.03930033 7.20188496 -0.04325778 9.66870117 -0.04541016 C11.39117035 -0.05184105 13.11363844 -0.05856963 14.83610535 -0.06558228 C18.4447991 -0.0775467 22.05339719 -0.08126401 25.66210938 -0.08007812 C30.27211697 -0.07987511 34.88150691 -0.10716288 39.49136829 -0.14162254 C43.04915651 -0.1639303 46.60679708 -0.16791447 50.16464806 -0.16685867 C51.8634116 -0.16920935 53.56217953 -0.17800268 55.26087379 -0.19352341 C72.54043202 -0.33660947 72.54043202 -0.33660947 80.38745117 5.86083984 C88.04600931 14.85230338 87.85220534 25.52952286 87.79760742 36.79052734 C87.7996337 38.27685692 87.80254973 39.76318551 87.80630493 41.24951172 C87.81070228 44.34921835 87.80438163 47.44866383 87.7902832 50.54833984 C87.77319262 54.4954508 87.78304784 58.44194951 87.8010006 62.38903809 C87.81190904 65.4536591 87.80836 68.51813808 87.80061722 71.58276367 C87.79863465 73.03702876 87.80100509 74.4913073 87.80805588 75.94555664 C87.84830979 86.57799612 87.5528037 96.30779506 80.38745117 104.72021484 C71.88423337 111.43591928 63.2252858 110.91163919 52.90698242 110.89208984 C51.19358917 110.89987626 49.48019973 110.90854815 47.76681519 110.9180603 C44.18434102 110.93293741 40.6022612 110.93243742 37.01977539 110.921875 C32.45115213 110.91029395 27.8841528 110.94414504 23.31579781 110.99056435 C19.77931439 111.02017167 16.24321613 111.02176475 12.70663071 111.01554489 C11.02346456 111.0165648 9.34027499 111.02691708 7.65723038 111.04716873 C-1.82058207 111.14722678 -10.32613611 111.22741131 -17.60083008 104.29052734 C-25.13347178 96.39106363 -24.45014449 86.73420071 -24.32739258 76.53271484 C-24.32635318 74.817393 -24.32739705 73.10206877 -24.33041382 71.38674927 C-24.33023526 67.80759697 -24.3095594 64.22935403 -24.27319336 60.65039062 C-24.22775067 56.07963057 -24.22675198 51.51019214 -24.24022865 46.93926811 C-24.24693315 43.40284627 -24.23360293 39.86672187 -24.21397018 36.3303566 C-24.20631384 34.64558598 -24.20394984 32.96078215 -24.20714188 31.27599716 C-24.21273313 13.63496981 -24.21273313 13.63496981 -17.85473633 6.26708984 C-17.29657227 5.82107422 -16.7384082 5.37505859 -16.16333008 4.91552734 C-15.60774414 4.45404297 -15.0521582 3.99255859 -14.47973633 3.51708984 C-9.79901862 0.46148618 -5.48141224 -0.00710948 0 0 Z " fill="#0189D7" transform="translate(218.600830078125,339.70947265625)"/>
<path d="M0 0 C1.71532184 0.00103939 3.43064607 -0.00000448 5.14596558 -0.00302124 C8.72511787 -0.00284269 12.30336081 0.01783318 15.88232422 0.05419922 C20.45308427 0.09964191 25.02252271 0.1006406 29.59344673 0.08716393 C33.12986858 0.08045943 36.66599298 0.09378965 40.20235825 0.11342239 C41.88712887 0.12107873 43.57193269 0.12344274 45.25671768 0.1202507 C62.40293668 0.11481627 62.40293668 0.11481627 70.23046875 6.296875 C77.88902689 15.28833853 77.69522292 25.96555802 77.640625 37.2265625 C77.64265128 38.71289207 77.6455673 40.19922067 77.64932251 41.68554688 C77.65371986 44.7852535 77.6473992 47.88469898 77.63330078 50.984375 C77.6162102 54.93148596 77.62606542 58.87798467 77.64401817 62.82507324 C77.65492662 65.88969425 77.65137758 68.95417323 77.6436348 72.01879883 C77.64165223 73.47306391 77.64402267 74.92734245 77.65107346 76.3815918 C77.72874045 96.89610934 77.72874045 96.89610934 70.9296875 104.1640625 C70.37667969 104.78152344 69.82367188 105.39898437 69.25390625 106.03515625 C64.34026993 110.16642718 59.70790016 111.17068761 53.43603516 111.13061523 C52.67747726 111.13747849 51.91891937 111.14434174 51.13737488 111.15141296 C48.64347317 111.1696317 46.15020363 111.16585014 43.65625 111.16015625 C41.91278887 111.16472094 40.16932954 111.17002737 38.4258728 111.17604065 C34.77602824 111.18496247 31.12640259 111.18255987 27.4765625 111.17260742 C22.81386508 111.1611282 18.15192619 111.18131763 13.48932838 111.21052456 C9.88948821 111.22892889 6.2898283 111.22858554 2.68995285 111.22288704 C0.97166252 111.22273429 -0.7466404 111.22873993 -2.46488571 111.24117851 C-19.11780196 111.34474044 -19.11780196 111.34474044 -25.7578125 106.7265625 C-27.78125 104.7265625 -27.78125 104.7265625 -29.1328125 102.7265625 C-29.59429687 102.0665625 -30.05578125 101.4065625 -30.53125 100.7265625 C-30.93601562 100.0665625 -31.34078125 99.4065625 -31.7578125 98.7265625 C-32.28078918 97.90534409 -32.28078918 97.90534409 -32.81433105 97.0675354 C-34.12086598 93.82575161 -34.06907075 90.71377661 -34.08007812 87.27099609 C-34.09000793 86.52569641 -34.09993774 85.78039673 -34.11016846 85.01251221 C-34.13934317 82.54997025 -34.15300684 80.08768632 -34.1640625 77.625 C-34.1755751 75.90589394 -34.18709044 74.18678791 -34.1986084 72.46768188 C-34.21961166 68.86141773 -34.23130651 65.25524247 -34.23828125 61.64892578 C-34.24922017 57.04890817 -34.29721239 52.4500838 -34.35422516 47.85043907 C-34.39165997 44.29685149 -34.40189881 40.7435454 -34.404953 37.18977737 C-34.41097099 35.49541355 -34.42690896 33.8010526 -34.45332336 32.106884 C-34.71544218 13.99552516 -34.71544218 13.99552516 -27.7578125 6.7265625 C-19.85620114 -0.80491916 -10.20286769 -0.12276854 0 0 Z " fill="#2671E5" transform="translate(373.7578125,49.2734375)"/>
<path d="M0 0 C1.12254936 -0.0098568 1.12254936 -0.0098568 2.26777649 -0.01991272 C4.74533187 -0.03962743 7.22282661 -0.05130578 9.70043945 -0.0612793 C10.54824289 -0.06535482 11.39604633 -0.06943035 12.26954079 -0.07362938 C16.75911846 -0.09448486 21.24866563 -0.1087874 25.73828125 -0.11816406 C30.36400363 -0.1292122 34.9892428 -0.16359492 39.61479473 -0.20333576 C43.18114585 -0.22954906 46.74738282 -0.23786019 50.31382179 -0.24144554 C52.01817898 -0.24630132 53.72253141 -0.25788645 55.42679405 -0.27648354 C73.35879816 -0.45995689 73.35879816 -0.45995689 80.6496582 5.95825195 C81.09567383 6.52543945 81.54168945 7.09262695 82.0012207 7.67700195 C82.69344727 8.5277832 82.69344727 8.5277832 83.3996582 9.39575195 C87.39634646 15.19985975 87.74668485 21.00554381 87.78735352 27.94165039 C87.79480087 28.91373444 87.79480087 28.91373444 87.80239868 29.90545654 C87.81690714 32.03244115 87.82380366 34.15935116 87.8293457 36.28637695 C87.83358677 37.3847224 87.83358677 37.3847224 87.83791351 38.50525665 C87.85286112 42.3811936 87.86211821 46.25709375 87.86645508 50.13305664 C87.87192959 54.1116096 87.89594856 58.0898186 87.92442703 62.06826401 C87.94316413 65.1500137 87.94826488 68.23168238 87.94979095 71.31348419 C87.95279368 72.77893196 87.96074049 74.24437913 87.97397614 75.7097702 C88.06362972 86.39962409 87.82280976 96.1438384 80.61450195 104.60668945 C72.11128415 111.32239389 63.45233658 110.7981138 53.1340332 110.77856445 C51.42063995 110.78635087 49.70725051 110.79502276 47.99386597 110.80453491 C44.4113918 110.81941202 40.82931198 110.81891203 37.24682617 110.80834961 C32.67820291 110.79676856 28.11120359 110.83061965 23.54284859 110.87703896 C20.00636517 110.90664628 16.47026691 110.90823936 12.93368149 110.9020195 C11.25051534 110.90303941 9.56732577 110.91339169 7.88428116 110.93364334 C-1.62008539 111.03398173 -9.93455226 110.95158344 -17.3737793 104.17700195 C-21.99812445 98.33246787 -23.52014201 93.34564269 -23.58251953 85.92675781 C-23.59230331 85.19135773 -23.6020871 84.45595764 -23.61216736 83.69827271 C-23.64209325 81.2628153 -23.66350492 78.827413 -23.68237305 76.3918457 C-23.68894487 75.55757113 -23.6955167 74.72329655 -23.70228767 73.86374092 C-23.73487709 69.44319479 -23.75932286 65.02267263 -23.77880859 60.60205078 C-23.79658026 56.9558569 -23.83133329 53.31044246 -23.88134766 49.66455078 C-23.94180216 45.25191667 -23.97231926 40.84000183 -23.98198128 36.42697334 C-23.99049829 34.75212801 -24.00922305 33.07729993 -24.0387249 31.40269279 C-24.19831715 21.8240072 -24.0784807 13.7468661 -17.3737793 6.17700195 C-11.92594108 1.23584253 -7.1722922 0.02731659 0 0 Z " fill="#727272" transform="translate(363.373779296875,339.822998046875)"/>
<path d="M0 0 C1.12342552 -0.01029488 1.12342552 -0.01029488 2.26954651 -0.02079773 C4.72554923 -0.03897893 7.18090784 -0.03524086 9.63696289 -0.02954102 C11.35657456 -0.034107 13.0761844 -0.03941381 14.79579163 -0.04542542 C18.39258252 -0.05433947 21.98915118 -0.05195292 25.5859375 -0.04199219 C30.1802289 -0.03050468 34.77375141 -0.05071903 39.36794186 -0.07990932 C42.91716837 -0.0983132 46.46621204 -0.09797056 50.01547432 -0.0922718 C51.70864503 -0.0921191 53.40182854 -0.09812106 55.09495354 -0.11056328 C73.40382115 -0.22616713 73.40382115 -0.22616713 80.19555664 6.36889648 C80.64157227 7.01987305 81.08758789 7.67084961 81.54711914 8.34155273 C82.2393457 9.31415039 82.2393457 9.31415039 82.94555664 10.30639648 C85.81523228 15.21409017 86.42964763 19.12972835 86.46264648 24.82128906 C86.46936371 25.55044022 86.47608093 26.27959137 86.48300171 27.03083801 C86.5019425 29.43265671 86.50590404 31.83419532 86.50805664 34.23608398 C86.51448787 35.9137127 86.52121647 37.59134029 86.52822876 39.26896667 C86.54019213 42.78350422 86.54391061 46.29794354 86.54272461 49.8125 C86.5425216 54.30144617 86.56980851 58.78975795 86.60426903 63.27855396 C86.6265808 66.74369664 86.63056083 70.20868775 86.62950516 73.67389488 C86.63185526 75.32800162 86.64064537 76.9821129 86.65616989 78.63614845 C86.7419307 88.71819863 86.58918862 96.00541226 79.92211914 104.15405273 C71.09482875 111.37638124 62.68584564 110.99623643 51.82836914 110.93530273 C50.13260679 110.93800131 48.43684596 110.94188677 46.74108887 110.94689941 C43.19727765 110.95277731 39.65387135 110.94428708 36.11010742 110.92553711 C31.58418797 110.9027483 27.05921752 110.91588062 22.53333282 110.93982697 C19.03469791 110.95433147 15.5362853 110.94965776 12.03764343 110.9393158 C10.36960231 110.93666133 8.70154053 110.93987286 7.03352356 110.94923401 C-10.10593071 111.02433075 -10.10593071 111.02433075 -17.81616211 104.79858398 C-25.40372829 95.73379253 -25.27933572 85.86884589 -25.22631836 74.52905273 C-25.22834363 72.99405784 -25.23125882 71.4590639 -25.23501587 69.92407227 C-25.23941795 66.72003951 -25.23307699 63.51625909 -25.21899414 60.31225586 C-25.20190331 56.2271414 -25.21175594 52.14261845 -25.22971153 48.05752563 C-25.24060698 44.89171986 -25.23707679 41.72605187 -25.22932816 38.5602417 C-25.22734202 37.05491056 -25.22972895 35.54956648 -25.23676682 34.04425049 C-25.30817659 14.48269801 -25.30817659 14.48269801 -18.57788086 7.02905273 C-18.03647461 6.40256836 -17.49506836 5.77608398 -16.93725586 5.13061523 C-11.77338949 0.90389499 -6.51439021 -0.04240102 0 0 Z " fill="#2A3543" transform="translate(73.827880859375,339.595947265625)"/>
<path d="M0 0 C1.69576235 -0.00269858 3.39152319 -0.00658403 5.08728027 -0.01159668 C8.63109149 -0.01747458 12.1744978 -0.00898434 15.71826172 0.00976562 C20.24418117 0.03255444 24.76915162 0.01942211 29.29503632 -0.00452423 C32.79367123 -0.01902873 36.29208384 -0.01435502 39.79072571 -0.00401306 C41.45876683 -0.0013586 43.12682861 -0.00457013 44.79484558 -0.01393127 C61.93429985 -0.08902802 61.93429985 -0.08902802 69.64453125 6.13671875 C77.23209743 15.2015102 77.10770487 25.06645685 77.0546875 36.40625 C77.05671277 37.94124489 77.05962796 39.47623884 77.06338501 41.01123047 C77.06778709 44.21526323 77.06144613 47.41904365 77.04736328 50.62304688 C77.03027245 54.70816134 77.04012509 58.79268428 77.05808067 62.8777771 C77.06897612 66.04358288 77.06544594 69.20925087 77.0576973 72.37506104 C77.05571117 73.88039217 77.05809809 75.38573625 77.06513596 76.89105225 C77.10418253 87.58722888 76.72672754 96.46475029 69.64453125 104.92578125 C61.23667085 111.71483945 52.57116793 111.1200731 42.3125 111.0625 C40.61673765 111.06519858 38.92097681 111.06908403 37.22521973 111.07409668 C33.68140851 111.07997458 30.1380022 111.07148434 26.59423828 111.05273438 C22.06831883 111.02994556 17.54334838 111.04307789 13.01746368 111.06702423 C9.51882877 111.08152873 6.02041616 111.07685502 2.52177429 111.06651306 C0.85373317 111.0638586 -0.81432861 111.06707013 -2.48234558 111.07643127 C-12.58079624 111.12067777 -19.93550527 110.9561775 -28.09375 104.28125 C-35.27204542 95.50777782 -34.93638325 87.19598599 -34.875 76.40625 C-34.87769867 74.73290787 -34.88158421 73.05956727 -34.88659668 71.38623047 C-34.89247412 67.88949566 -34.88398586 64.39317125 -34.86523438 60.89648438 C-34.84244555 56.43109463 -34.85557812 51.96666677 -34.87952423 47.50131226 C-34.89403 44.04899954 -34.88935446 40.59691206 -34.87901306 37.14459229 C-34.87635895 35.49887984 -34.87956889 33.85314645 -34.88893127 32.2074585 C-34.93350727 22.17138054 -34.72775169 14.88947429 -28.09375 6.78125 C-19.26645961 -0.4410785 -10.8574765 -0.06093369 0 0 Z " fill="#2E6BE4" transform="translate(374.34375,194.46875)"/>
<path d="M0 0 C1.120578 -0.01248528 1.120578 -0.01248528 2.26379395 -0.02522278 C4.72572089 -0.04925406 7.18738238 -0.05808727 9.64941406 -0.06469727 C11.36948726 -0.07367027 13.08955969 -0.08279223 14.80963135 -0.09205627 C18.41412244 -0.10853117 22.01852083 -0.11624339 25.62304688 -0.11914062 C30.22410977 -0.12451665 34.8242915 -0.16217031 39.42510605 -0.20788479 C42.97864905 -0.23774703 46.53198243 -0.24486619 50.08563995 -0.24586678 C51.78080522 -0.25005249 53.47597208 -0.26242011 55.17101288 -0.28338432 C72.46435549 -0.48020976 72.46435549 -0.48020976 79.41503906 5.30639648 C84.7651613 10.79731141 86.8682119 16.43482835 86.8190918 24.02075195 C86.82595505 24.76955627 86.8328183 25.5183606 86.83988953 26.28985596 C86.85810583 28.75129466 86.85432706 31.2120927 86.84863281 33.67358398 C86.85319763 35.39462489 86.8585041 37.11566398 86.86451721 38.83670044 C86.87343856 42.43946752 86.87103699 46.04201284 86.86108398 49.64477539 C86.84960498 54.24694242 86.86979404 58.84834092 86.89900112 63.45040703 C86.91740703 67.00392468 86.91706179 70.55725975 86.9113636 74.11081314 C86.91121087 75.80677492 86.917215 77.50274946 86.92965508 79.19866562 C87.04148406 96.94510228 87.04148406 96.94510228 80.66894531 104.32983398 C80.11078125 104.77584961 79.55261719 105.22186523 78.97753906 105.68139648 C78.14416016 106.37362305 78.14416016 106.37362305 77.29394531 107.07983398 C72.5880722 110.15185926 68.23230534 110.60762146 62.72241211 110.61279297 C61.96400024 110.62111649 61.20558838 110.62944 60.42419434 110.63801575 C57.92499609 110.66204695 55.42605923 110.67087962 52.92675781 110.67749023 C51.18186874 110.68646225 49.43698044 110.6955842 47.6920929 110.70484924 C44.03632745 110.72132341 40.38065342 110.7290364 36.72485352 110.73193359 C32.05419616 110.73731383 27.3844051 110.77498537 22.71399212 110.82067776 C19.10987762 110.85050987 15.50597014 110.85765849 11.90174294 110.85865974 C10.18063199 110.86285034 8.45951977 110.87523784 6.73853111 110.89617729 C-9.8923155 111.08241217 -9.8923155 111.08241217 -16.58496094 105.30639648 C-18.64355469 103.17358398 -18.64355469 103.17358398 -20.02246094 101.18139648 C-20.49554688 100.51881836 -20.96863281 99.85624023 -21.45605469 99.17358398 C-23.85501992 95.20574529 -23.74490134 91.41232948 -23.76196289 86.93261719 C-23.76853409 86.18425095 -23.77510529 85.4358847 -23.78187561 84.6648407 C-23.80159032 82.18728532 -23.81326867 79.70979058 -23.82324219 77.23217773 C-23.82731771 76.38437429 -23.83139324 75.53657085 -23.83559227 74.6630764 C-23.85644775 70.17349873 -23.87075029 65.68395156 -23.88012695 61.19433594 C-23.89117509 56.56861356 -23.92555781 51.94337438 -23.96529865 47.31782246 C-23.99151195 43.75147133 -23.99982308 40.18523437 -24.00340843 36.61879539 C-24.00826421 34.91443821 -24.01984934 33.21008578 -24.03844643 31.50582314 C-24.22084737 13.67863177 -24.22084737 13.67863177 -17.83886719 6.28295898 C-17.28070313 5.83694336 -16.72253906 5.39092773 -16.14746094 4.93139648 C-15.591875 4.46991211 -15.03628906 4.00842773 -14.46386719 3.53295898 C-9.79187942 0.48305429 -5.47170234 0.00521611 0 0 Z " fill="#EF5030" transform="translate(73.5849609375,49.693603515625)"/>
<path d="M0 0 C1.120578 -0.01248528 1.120578 -0.01248528 2.26379395 -0.02522278 C4.72572089 -0.04925406 7.18738238 -0.05808727 9.64941406 -0.06469727 C11.36948726 -0.07367027 13.08955969 -0.08279223 14.80963135 -0.09205627 C18.41412244 -0.10853117 22.01852083 -0.11624339 25.62304688 -0.11914062 C30.22410977 -0.12451665 34.8242915 -0.16217031 39.42510605 -0.20788479 C42.97864905 -0.23774703 46.53198243 -0.24486619 50.08563995 -0.24586678 C51.78080522 -0.25005249 53.47597208 -0.26242011 55.17101288 -0.28338432 C72.46435549 -0.48020976 72.46435549 -0.48020976 79.41503906 5.30639648 C84.7651613 10.79731141 86.8682119 16.43482835 86.8190918 24.02075195 C86.82595505 24.76955627 86.8328183 25.5183606 86.83988953 26.28985596 C86.85810583 28.75129466 86.85432706 31.2120927 86.84863281 33.67358398 C86.85319763 35.39462489 86.8585041 37.11566398 86.86451721 38.83670044 C86.87343856 42.43946752 86.87103699 46.04201284 86.86108398 49.64477539 C86.84960498 54.24694242 86.86979404 58.84834092 86.89900112 63.45040703 C86.91740703 67.00392468 86.91706179 70.55725975 86.9113636 74.11081314 C86.91121087 75.80677492 86.917215 77.50274946 86.92965508 79.19866562 C87.04148406 96.94510228 87.04148406 96.94510228 80.66894531 104.32983398 C80.11078125 104.77584961 79.55261719 105.22186523 78.97753906 105.68139648 C78.14416016 106.37362305 78.14416016 106.37362305 77.29394531 107.07983398 C72.5880722 110.15185926 68.23230534 110.60762146 62.72241211 110.61279297 C61.96400024 110.62111649 61.20558838 110.62944 60.42419434 110.63801575 C57.92499609 110.66204695 55.42605923 110.67087962 52.92675781 110.67749023 C51.18186874 110.68646225 49.43698044 110.6955842 47.6920929 110.70484924 C44.03632745 110.72132341 40.38065342 110.7290364 36.72485352 110.73193359 C32.05419616 110.73731383 27.3844051 110.77498537 22.71399212 110.82067776 C19.10987762 110.85050987 15.50597014 110.85765849 11.90174294 110.85865974 C10.18063199 110.86285034 8.45951977 110.87523784 6.73853111 110.89617729 C-9.8923155 111.08241217 -9.8923155 111.08241217 -16.58496094 105.30639648 C-18.64355469 103.17358398 -18.64355469 103.17358398 -20.02246094 101.18139648 C-20.49554688 100.51881836 -20.96863281 99.85624023 -21.45605469 99.17358398 C-23.85501992 95.20574529 -23.74490134 91.41232948 -23.76196289 86.93261719 C-23.76853409 86.18425095 -23.77510529 85.4358847 -23.78187561 84.6648407 C-23.80159032 82.18728532 -23.81326867 79.70979058 -23.82324219 77.23217773 C-23.82731771 76.38437429 -23.83139324 75.53657085 -23.83559227 74.6630764 C-23.85644775 70.17349873 -23.87075029 65.68395156 -23.88012695 61.19433594 C-23.89117509 56.56861356 -23.92555781 51.94337438 -23.96529865 47.31782246 C-23.99151195 43.75147133 -23.99982308 40.18523437 -24.00340843 36.61879539 C-24.00826421 34.91443821 -24.01984934 33.21008578 -24.03844643 31.50582314 C-24.22084737 13.67863177 -24.22084737 13.67863177 -17.83886719 6.28295898 C-17.28070313 5.83694336 -16.72253906 5.39092773 -16.14746094 4.93139648 C-15.591875 4.46991211 -15.03628906 4.00842773 -14.46386719 3.53295898 C-9.79187942 0.48305429 -5.47170234 0.00521611 0 0 Z " fill="#000000" transform="translate(218.5849609375,49.693603515625)"/>
<path d="M0 0 C0.7387587 -0.0065712 1.4775174 -0.0131424 2.23866272 -0.01991272 C4.67831535 -0.03958798 7.11790657 -0.05129577 9.55761719 -0.0612793 C10.39347099 -0.06535482 11.2293248 -0.06943035 12.09050751 -0.07362938 C16.51525116 -0.09446613 20.93996404 -0.10877784 25.36474609 -0.11816406 C29.92206139 -0.12921985 34.47888729 -0.1636168 39.03602982 -0.20333576 C42.55176671 -0.22954855 46.0673878 -0.23786004 49.58321381 -0.24144554 C51.26245171 -0.24629993 52.94168484 -0.25788108 54.62082672 -0.27648354 C72.23160138 -0.45945016 72.23160138 -0.45945016 79.62792969 5.9230957 C80.29695313 6.7603418 80.29695313 6.7603418 80.97949219 7.61450195 C81.67171875 8.44788086 81.67171875 8.44788086 82.37792969 9.2980957 C85.43353335 13.97881342 85.90212902 18.29641979 85.89501953 23.77783203 C85.90173676 24.52649033 85.90845398 25.27514862 85.91537476 26.04649353 C85.93431987 28.51324158 85.93827731 30.97971699 85.94042969 33.4465332 C85.94686058 35.16900238 85.95358916 36.89147047 85.96060181 38.61393738 C85.97256624 42.22263113 85.97628355 45.83122922 85.97509766 49.43994141 C85.97489464 54.049949 86.00218241 58.65933894 86.03664207 63.26920033 C86.05894983 66.82698855 86.062934 70.38462911 86.0618782 73.94248009 C86.06422888 75.64124363 86.07302222 77.34001156 86.08854294 79.03870583 C86.23570243 96.81018561 86.23570243 96.81018561 79.85839844 104.20043945 C79.30023438 104.64645508 78.74207031 105.0924707 78.16699219 105.55200195 C77.33361328 106.24422852 77.33361328 106.24422852 76.48339844 106.95043945 C71.80268072 110.00604312 67.48507435 110.47463878 62.00366211 110.4675293 C61.25500381 110.47424652 60.50634552 110.48096375 59.73500061 110.48788452 C57.26825256 110.50682963 54.80177715 110.51078707 52.33496094 110.51293945 C50.61249176 110.51937035 48.89002367 110.52609893 47.16755676 110.53311157 C43.55886301 110.545076 39.95026492 110.54879331 36.34155273 110.54760742 C31.73154514 110.5474044 27.1221552 110.57469218 22.51229382 110.60915184 C18.95450559 110.6314596 15.39686503 110.63544376 11.83901405 110.63438797 C10.14025051 110.63673864 8.44148258 110.64553198 6.74278831 110.6610527 C-11.02869147 110.8082122 -11.02869147 110.8082122 -18.41894531 104.4309082 C-18.86496094 103.87274414 -19.31097656 103.31458008 -19.77050781 102.73950195 C-20.23199219 102.18391602 -20.69347656 101.62833008 -21.16894531 101.0559082 C-24.23350696 96.36146822 -24.68956566 92.04115664 -24.67016602 86.54443359 C-24.67527695 85.79256271 -24.68038788 85.04069183 -24.68565369 84.26603699 C-24.69951217 81.78966226 -24.69859581 79.31356701 -24.69628906 76.8371582 C-24.70017796 75.10989784 -24.70451303 73.38263843 -24.70927429 71.65538025 C-24.71672837 68.03828834 -24.71645105 64.42129406 -24.71118164 60.80419922 C-24.70538706 56.17615763 -24.72232156 51.54851625 -24.74552631 46.92054081 C-24.76028002 43.35426001 -24.76113315 39.78807525 -24.75801659 36.22176933 C-24.75852894 34.51578415 -24.76375057 32.80979346 -24.77382851 31.10383797 C-24.78620802 28.71528462 -24.77939272 26.3275064 -24.76782227 23.93896484 C-24.775466 23.23903412 -24.78310974 22.53910339 -24.79098511 21.81796265 C-24.71105479 14.32752176 -21.38883195 9.5269921 -16.39550781 4.17700195 C-11.03506371 0.38546832 -6.43158397 0.02495307 0 0 Z " fill="#006DB4" transform="translate(74.3955078125,194.822998046875)"/>
<path d="M0 0 C3.0940994 4.6411491 3.12981354 8.19833099 3.16113281 13.73706055 C3.16609772 14.40593796 3.17106262 15.07481537 3.17617798 15.76396179 C3.19075239 17.97155804 3.19759501 20.17908234 3.203125 22.38671875 C3.20888198 23.92885844 3.21463964 25.47099813 3.22039795 27.01313782 C3.23089567 30.24696179 3.23674582 33.480761 3.24023438 36.71459961 C3.24570512 40.83903394 3.26970765 44.96313582 3.29820633 49.08746624 C3.31692319 52.27469303 3.32204318 55.46184134 3.32357025 58.64911842 C3.32657884 60.16842267 3.33454607 61.68772613 3.34775543 63.20697594 C3.5080727 83.06934629 3.5080727 83.06934629 -3.1875 90.0625 C-3.71730469 90.63097656 -4.24710937 91.19945312 -4.79296875 91.78515625 C-5.19128906 92.18605469 -5.58960938 92.58695312 -6 93 C-7.32 91.68 -8.64 90.36 -10 89 C-8.515 88.505 -8.515 88.505 -7 88 C-7 88.66 -7 89.32 -7 90 C-6.01 89.505 -6.01 89.505 -5 89 C-4.84850702 85.37114676 -4.84850702 85.37114676 -6 82 C-4.35 82 -2.7 82 -1 82 C0.52509489 78.94981022 0.12975944 75.77450387 0.11352539 72.42919922 C0.11367142 71.64862152 0.11381744 70.86804382 0.1139679 70.06381226 C0.11326986 67.47740931 0.10548257 64.89107791 0.09765625 62.3046875 C0.09579168 60.51392659 0.09436796 58.72316517 0.09336853 56.93240356 C0.08954641 52.21415809 0.07971871 47.4959433 0.06866455 42.77770996 C0.05844389 37.96509211 0.0538695 33.15246932 0.04882812 28.33984375 C0.03809619 18.89321567 0.0210234 9.44661038 0 0 Z " fill="#3C6BC5" transform="translate(448,208)"/>
<path d="M0 0 C4.75918579 4.37330586 7.68702281 8.07037979 8.38768005 14.62887573 C8.40833417 15.99055661 8.41287067 17.3525465 8.40405273 18.71435547 C8.41091599 19.46315979 8.41777924 20.21196411 8.42485046 20.98345947 C8.44306677 23.44489817 8.439288 25.90569621 8.43359375 28.3671875 C8.43815857 30.08822841 8.44346504 31.8092675 8.44947815 33.53030396 C8.45839949 37.13307104 8.45599793 40.73561635 8.44604492 44.33837891 C8.43456592 48.94054593 8.45475498 53.54194444 8.48396206 58.14401054 C8.50236797 61.6975282 8.50202273 65.25086326 8.49632454 68.80441666 C8.49617181 70.50037844 8.50217594 72.19635297 8.51461601 73.89226913 C8.61740511 90.20414152 8.61740511 90.20414152 4 97 C2 94 2 94 2 92 C2.99 92 3.98 92 5 92 C6.1835295 88.27153218 6.12023645 84.73714064 6.11352539 80.84472656 C6.11374443 79.77583443 6.11374443 79.77583443 6.1139679 78.68534851 C6.11327291 76.33707605 6.10549994 73.98888355 6.09765625 71.640625 C6.0957906 70.00966434 6.09436739 68.37870312 6.09336853 66.7477417 C6.08955494 62.46025031 6.07973454 58.17279292 6.06866455 53.88531494 C6.05842553 49.50818339 6.05386557 45.13104633 6.04882812 40.75390625 C6.03811123 32.16925525 6.02104872 23.58463186 6 15 C5.34 14.67 4.68 14.34 4 14 C4 13.34 4 12.68 4 12 C3.34 11.67 2.68 11.34 2 11 C2.04125 9.9275 2.0825 8.855 2.125 7.75 C2.0114175 4.34252515 1.78726636 2.79260369 0 0 Z " fill="#0E6BA5" transform="translate(152,200)"/>
<path d="M0 0 C1.73733873 0.00746957 3.47468593 0.01315912 5.21203613 0.01715088 C9.76273262 0.03235096 14.31291038 0.07158345 18.86340332 0.1159668 C23.51563502 0.15704162 28.16795135 0.17518786 32.8203125 0.1953125 C41.93251833 0.23808382 51.04434086 0.3062661 60.15625 0.390625 C60.15625 0.720625 60.15625 1.050625 60.15625 1.390625 C58.77015785 1.40275528 58.77015785 1.40275528 57.35606384 1.41513062 C48.63145259 1.49319435 39.90699317 1.5805205 31.18257809 1.67815208 C26.69767769 1.72801682 22.21279974 1.77434749 17.7277832 1.8125 C13.3964167 1.84947719 9.06524249 1.89587037 4.73404121 1.94868851 C3.08474679 1.96716656 1.43541125 1.98229863 -0.21394539 1.99396896 C-2.53093116 2.01094481 -4.84748283 2.04000578 -7.16430664 2.07177734 C-8.4811293 2.08510101 -9.79795197 2.09842468 -11.15467834 2.1121521 C-15.9928676 2.47736718 -20.32066215 3.00902618 -23.98828125 6.3359375 C-24.53871094 7.05523437 -25.08914062 7.77453125 -25.65625 8.515625 C-26.68291271 9.83595553 -27.73785309 11.13591346 -28.84375 12.390625 C-29.50375 12.390625 -30.16375 12.390625 -30.84375 12.390625 C-30.84375 13.380625 -30.84375 14.370625 -30.84375 15.390625 C-31.50375 15.390625 -32.16375 15.390625 -32.84375 15.390625 C-30.93455917 9.4894897 -27.75289473 5.7357872 -22.77929688 2.23144531 C-15.8300453 -1.08021513 -7.52336742 -0.09518383 0 0 Z " fill="#DD5337" transform="translate(83.84375,49.609375)"/>
<path d="M0 0 C1.72393434 0.00425675 3.44787444 0.00657942 5.17181396 0.00706482 C8.76943275 0.01320504 12.36642275 0.03578838 15.96386719 0.0715332 C20.56943762 0.11693995 25.17444258 0.13156811 29.78021622 0.13527012 C33.33361351 0.13970178 36.8868929 0.15500887 40.44023895 0.17414665 C42.13865952 0.1830067 43.83709254 0.1897474 45.53553009 0.19430733 C47.90703921 0.20337084 50.27804268 0.22577588 52.64941406 0.25219727 C53.34665588 0.25286194 54.04389771 0.25352661 54.76226807 0.25421143 C58.68087289 0.3143319 61.69999362 0.84743801 65.234375 2.55859375 C65.234375 2.88859375 65.234375 3.21859375 65.234375 3.55859375 C62.924375 3.22859375 60.614375 2.89859375 58.234375 2.55859375 C58.729375 4.04359375 58.729375 4.04359375 59.234375 5.55859375 C58.244375 5.22859375 57.254375 4.89859375 56.234375 4.55859375 C56.234375 3.56859375 56.234375 2.57859375 56.234375 1.55859375 C46.78536716 1.66613361 37.33643794 1.77877486 27.88756943 1.89793301 C23.50010412 1.95310221 19.11263207 2.00651259 14.72509766 2.0559082 C10.49106343 2.10364032 6.25710911 2.15598627 2.02317047 2.2115345 C0.40766641 2.23191798 -1.20785952 2.25063762 -2.8234024 2.26766777 C-5.0857992 2.29180062 -7.34804599 2.3218428 -9.61035156 2.35327148 C-10.89830627 2.36881577 -12.18626099 2.38436005 -13.51324463 2.40037537 C-16.13288248 2.52781276 -18.28068743 2.77898012 -20.765625 3.55859375 C-21.095625 4.87859375 -21.425625 6.19859375 -21.765625 7.55859375 C-24.075625 8.21859375 -26.385625 8.87859375 -28.765625 9.55859375 C-26.95584881 5.31368832 -24.83857844 3.66750982 -20.79504395 1.56881714 C-14.14007437 -0.65042227 -6.93927271 -0.08582471 0 0 Z " fill="#336FD5" transform="translate(373.765625,49.44140625)"/>
<path d="M0 0 C2.64 0.33 5.28 0.66 8 1 C4.55737636 5.01639424 0.57220217 6.83616906 -4.65579224 7.38095093 C-6.02969434 7.3985936 -7.40386813 7.40007759 -8.77783203 7.38818359 C-9.53306152 7.39344055 -10.28829102 7.39869751 -11.06640625 7.40411377 C-13.54708925 7.41725041 -16.0271237 7.40860032 -18.5078125 7.3984375 C-20.23843508 7.40045964 -21.96905684 7.40337225 -23.69967651 7.40713501 C-27.3192357 7.4115494 -30.93857223 7.40515433 -34.55810547 7.39111328 C-39.1964286 7.37399619 -43.83423188 7.38388398 -48.47253609 7.40183067 C-52.04303914 7.41267063 -55.61341887 7.40922166 -59.18392563 7.4014473 C-60.8943475 7.3994472 -62.6047806 7.40189789 -64.31518936 7.40888596 C-66.70408061 7.41650687 -69.09212859 7.40488914 -71.48095703 7.38818359 C-72.53928238 7.39729263 -72.53928238 7.39729263 -73.61898804 7.40658569 C-77.69413779 7.35380366 -80.03261907 6.86203083 -83 4 C-81.00045254 3.95745644 -78.99958364 3.95919217 -77 4 C-76.67 4.33 -76.34 4.66 -76 5 C-73.69946165 5.09443335 -71.39597827 5.11742128 -69.09350586 5.11352539 C-68.01064049 5.11374443 -68.01064049 5.11374443 -66.90589905 5.1139679 C-64.50885053 5.11326869 -62.11187877 5.10547595 -59.71484375 5.09765625 C-58.05717511 5.0957921 -56.39950593 5.09436818 -54.74183655 5.09336853 C-50.37045786 5.08954312 -45.99911219 5.07971265 -41.62774658 5.06866455 C-37.17045539 5.05845092 -32.71315889 5.05387101 -28.25585938 5.04882812 C-19.50389107 5.0380904 -10.75194964 5.02101371 -2 5 C-1.34 3.35 -0.68 1.7 0 0 Z " fill="#1286C7" transform="translate(290,443)"/>
<path d="M0 0 C6.51896463 1.70734788 10.36044196 4.66881144 14.15527344 10.06445312 C17.47199175 17.01275562 16.48581908 25.31957228 16.390625 32.84375 C16.38315543 34.58108873 16.37746588 36.31843593 16.37347412 38.05578613 C16.35827404 42.60648262 16.31904155 47.15666038 16.2746582 51.70715332 C16.23358338 56.35938502 16.21543714 61.01170135 16.1953125 65.6640625 C16.15254118 74.77626833 16.0843589 83.88809086 16 93 C15.67 93 15.34 93 15 93 C15 67.92 15 42.84 15 17 C14.01 16.67 13.02 16.34 12 16 C11.54175307 14.00335266 11.08573367 12.00609606 10.65234375 10.00390625 C9.62706287 6.85439073 7.76925608 5.67443391 5 4 C2.3205355 2.75983331 2.3205355 2.75983331 0 2 C0 1.34 0 0.68 0 0 Z " fill="#D45942" transform="translate(144,51)"/>
<path d="M0 0 C7.625 1.75 7.625 1.75 11 4 C13.4746942 4.21230178 15.84080399 4.31120432 18.31713867 4.31884766 C19.05884811 4.32889328 19.80055756 4.3389389 20.56474304 4.34928894 C23.01581041 4.38017424 25.46676829 4.39717073 27.91796875 4.4140625 C29.61762945 4.43276987 31.31728083 4.45234296 33.016922 4.4727478 C37.49012762 4.52412064 41.96336338 4.56371872 46.43670654 4.60089111 C51.00150029 4.64089851 55.56616815 4.69200572 60.13085938 4.7421875 C69.08715122 4.83900775 78.04351406 4.92339298 87 5 C87.33 4.01 87.66 3.02 88 2 C89.98 2 91.96 2 94 2 C89.33033786 5.5800743 86.47030006 6.15522609 80.64794922 6.17700195 C79.51098854 6.18685875 79.51098854 6.18685875 78.35105896 6.19691467 C75.83560082 6.21666779 73.32020257 6.22831741 70.8046875 6.23828125 C69.51505789 6.24439454 69.51505789 6.24439454 68.19937515 6.25063133 C63.64496347 6.27150503 59.090582 6.28579862 54.53613281 6.29516602 C49.84200329 6.30620674 45.14835091 6.34057561 40.45438957 6.38033772 C36.83742421 6.40655151 33.22057143 6.41486228 29.60351944 6.41844749 C27.87404296 6.42330462 26.14457121 6.43489362 24.41518784 6.45348549 C21.98588716 6.47796916 19.55780558 6.47689512 17.12841797 6.4699707 C16.42161392 6.48278076 15.71480988 6.49559082 14.98658752 6.50878906 C9.6251532 6.45345698 5.40425478 4.97149955 1 2 C0.67 1.34 0.34 0.68 0 0 Z " fill="#2F6FD5" transform="translate(347,154)"/>
<path d="M0 0 C0.33 0 0.66 0 1 0 C1 2.31 1 4.62 1 7 C0.34 7 -0.32 7 -1 7 C-1 31.42 -1 55.84 -1 81 C-1.33 81 -1.66 81 -2 81 C-2.04635898 71.17720447 -2.08188735 61.354435 -2.10362434 51.53155231 C-2.11405748 46.97029567 -2.12820815 42.40911393 -2.15087891 37.84790039 C-2.17262398 33.44533236 -2.18457217 29.04283633 -2.18975449 24.64021873 C-2.19344725 22.96131443 -2.20065828 21.28241403 -2.21146011 19.60354042 C-2.22599718 17.25033707 -2.22797702 14.89743055 -2.22705078 12.54418945 C-2.23424133 11.8515097 -2.24143188 11.15882996 -2.24884033 10.44515991 C-2.23214932 6.52121332 -1.71857602 3.5362935 0 0 Z " fill="#4472CE" transform="translate(342,207)"/>
<path d="M0 0 C3.98175544 2.10148204 6.35039045 4.36905358 9 8 C8.67 8.66 8.34 9.32 8 10 C5.48916886 8.74458443 5.12874554 7.49936512 4 5 C3.67 5.33 3.34 5.66 3 6 C3 6.66 3 7.32 3 8 C1.02 8.33 -0.96 8.66 -3 9 C-2.34 7.68 -1.68 6.36 -1 5 C-2.98 5.99 -2.98 5.99 -5 7 C-4.34 5.68 -3.68 4.36 -3 3 C-2.01 3 -1.02 3 0 3 C0 2.01 0 1.02 0 0 Z " fill="#2D71D7" transform="translate(439,53)"/>
<path d="M0 0 C4.49596251 3.03781251 6.34029182 5.83646342 8 11 C7.6875 13.4375 7.6875 13.4375 7 15 C7 14.01 7 13.02 7 12 C6.01 12 5.02 12 4 12 C3.67 9.69 3.34 7.38 3 5 C2.34 5 1.68 5 1 5 C0.67 3.35 0.34 1.7 0 0 Z M2 12 C2.66 12.33 3.32 12.66 4 13 C2.68 13.33 1.36 13.66 0 14 C0.66 13.34 1.32 12.68 2 12 Z " fill="#0D86CA" transform="translate(297,345)"/>
<path d="M0 0 C1.32 0.33 2.64 0.66 4 1 C2.73299277 1.9841125 1.4612381 2.96211497 0.1875 3.9375 C-0.87404297 4.75541016 -0.87404297 4.75541016 -1.95703125 5.58984375 C-5.89528432 8.30821728 -9.35108058 8.08771546 -14 8 C-13.67 7.34 -13.34 6.68 -13 6 C-10.36 6 -7.72 6 -5 6 C-5 5.01 -5 4.02 -5 3 C-3.35 2.67 -1.7 2.34 0 2 C0 1.34 0 0.68 0 0 Z " fill="#146B9F" transform="translate(151,297)"/>
<path d="M0 0 C0 0.99 0 1.98 0 3 C-0.66 3.66 -1.32 4.32 -2 5 C-2.34022786 6.99883869 -2.67329097 8.99890722 -3 11 C-3.99 12.485 -3.99 12.485 -5 14 C-5.66 14 -6.32 14 -7 14 C-7.33 14.66 -7.66 15.32 -8 16 C-7.71583773 9.1801056 -4.79439516 4.79439516 0 0 Z " fill="#1B85C1" transform="translate(203,344)"/>
<path d="M0 0 C1.2065625 0.0309375 1.2065625 0.0309375 2.4375 0.0625 C1.99280671 5.10235731 -0.27593362 7.43884988 -3.5625 11.0625 C-3.8925 9.7425 -4.2225 8.4225 -4.5625 7.0625 C-3.9025 7.0625 -3.2425 7.0625 -2.5625 7.0625 C-2.748125 6.093125 -2.93375 5.12375 -3.125 4.125 C-3.269375 3.114375 -3.41375 2.10375 -3.5625 1.0625 C-2.5625 0.0625 -2.5625 0.0625 0 0 Z " fill="#336DD2" transform="translate(446.5625,143.9375)"/>
<path d="M0 0 C0.66 0.33 1.32 0.66 2 1 C1.57630928 2.6286551 1.1355377 4.25287378 0.6875 5.875 C0.44386719 6.77992188 0.20023437 7.68484375 -0.05078125 8.6171875 C-1 11 -1 11 -4 13 C-4 11.02 -4 9.04 -4 7 C-3.34 6.67 -2.68 6.34 -2 6 C-1.27306096 4.02111039 -0.60183749 2.02045442 0 0 Z " fill="#1687C0" transform="translate(304,428)"/>
<path d="M0 0 C0.556875 0.28875 1.11375 0.5775 1.6875 0.875 C4.08494645 2.0413253 6.51596939 3.0339881 9 4 C9 4.66 9 5.32 9 6 C11.31 6.33 13.62 6.66 16 7 C16 7.33 16 7.66 16 8 C9.07090578 7.75253235 5.07106306 5.74737819 0 1 C0 0.67 0 0.34 0 0 Z " fill="#1C6B9C" transform="translate(55,297)"/>
<path d="M0 0 C0.66 0.33 1.32 0.66 2 1 C1.505 1.4125 1.01 1.825 0.5 2.25 C-1.43386092 4.12202338 -1.43386092 4.12202338 -1 8 C-4 10.25 -4 10.25 -7 12 C-5.63855967 6.80177328 -3.53269829 3.90456127 0 0 Z " fill="#176DA0" transform="translate(58,199)"/>
<path d="M0 0 C5.44915409 1.10830253 8.84015388 2.10014426 13 6 C7.57689095 5.56615128 4.29855944 4.35497322 0 1 C0 0.67 0 0.34 0 0 Z " fill="#346CC8" transform="translate(347,154)"/>
<path d="M0 0 C2.97 0.495 2.97 0.495 6 1 C3.16569547 4.2542015 1.31392226 5.5206753 -3 6 C-3 5.01 -3 4.02 -3 3 C-2.01 3 -1.02 3 0 3 C0 2.01 0 1.02 0 0 Z " fill="#DA5742" transform="translate(147,153)"/>
<path d="M0 0 C0.99 0.99 1.98 1.98 3 3 C2.67 3.99 2.34 4.98 2 6 C-2.455 4.02 -2.455 4.02 -7 2 C-5.68 1.67 -4.36 1.34 -3 1 C-2.01 0.67 -1.02 0.34 0 0 Z " fill="#3569D8" transform="translate(353,297)"/>
<path d="M0 0 C3.68754757 0.49831724 5.60490662 1.10067643 8 4 C7.34 4 6.68 4 6 4 C6.33 5.32 6.66 6.64 7 8 C6.01 8 5.02 8 4 8 C4 6.68 4 5.36 4 4 C3.34 3.67 2.68 3.34 2 3 C2 2.34 2 1.68 2 1 C1.34 0.67 0.68 0.34 0 0 Z " fill="#126AA5" transform="translate(144,196)"/>
<path d="M0 0 C1.98 0 3.96 0 6 0 C1.32733754 3.58237455 -1.02023637 4.11073636 -7 4 C-7 3.67 -7 3.34 -7 3 C-5.02 3 -3.04 3 -1 3 C-0.67 2.01 -0.34 1.02 0 0 Z " fill="#356DC9" transform="translate(435,156)"/>
<path d="M0 0 C2.97 0.99 5.94 1.98 9 3 C9 3.99 9 4.98 9 6 C4.64464931 4.83857315 2.35380297 3.92300495 0 0 Z " fill="#D65743" transform="translate(56,153)"/>
<path d="M0 0 C0.99 0.33 1.98 0.66 3 1 C3.94921875 3.06640625 3.94921875 3.06640625 4.6875 5.5625 C4.93886719 6.38878906 5.19023437 7.21507812 5.44921875 8.06640625 C5.63097656 8.70449219 5.81273437 9.34257812 6 10 C2.51668565 6.98112756 1.20842856 4.43090471 0 0 Z " fill="#356DC4" transform="translate(341,144)"/>
<path d="M0 0 C-3.00617269 3.00617269 -5.82381598 2.59585316 -10 3 C-6.81859267 -0.48439851 -4.56758339 -1.41752588 0 0 Z " fill="#D75B42" transform="translate(70,51)"/>
<path d="M0 0 C4.8 3.44615385 4.8 3.44615385 5.8125 6.25 C5.874375 6.8275 5.93625 7.405 6 8 C4 8 4 8 2.4375 6.8125 C0.67318459 4.5879284 0.37596209 2.78211944 0 0 Z " fill="#1B83BD" transform="translate(297,345)"/>
<path d="M0 0 C1.32 0.33 2.64 0.66 4 1 C4.33 3.31 4.66 5.62 5 8 C2.20127563 5.47211993 0.54226981 3.79588866 0 0 Z " fill="#D75442" transform="translate(51,145)"/>
</svg>
