<?xml version="1.0" encoding="UTF-8"?>
<svg version="1.1" xmlns="http://www.w3.org/2000/svg" width="500" height="500">
<path d="M0 0 C1.29102631 -0.0033284 2.58205261 -0.0066568 3.91220093 -0.01008606 C6.64053177 -0.01605265 9.36883107 -0.01792867 12.09716797 -0.01733398 C15.55630714 -0.01723286 19.01523875 -0.03084412 22.47432899 -0.04810619 C25.81622144 -0.06205159 29.15807897 -0.06131911 32.5 -0.0625 C33.72337067 -0.06968552 34.94674133 -0.07687103 36.20718384 -0.08427429 C58.56188785 -0.02587323 58.56188785 -0.02587323 65.99609375 6.38671875 C71.95325952 12.80862795 73.7567432 18.41941499 73.82543945 27.07275391 C73.83201065 27.75953217 73.83858185 28.44631042 73.84535217 29.15390015 C73.865023 31.42161178 73.87673636 33.68925725 73.88671875 35.95703125 C73.89079428 36.73522594 73.8948698 37.51342064 73.89906883 38.31519699 C73.9199072 42.4375049 73.93421625 46.55977978 73.94360352 50.68212891 C73.95463878 54.91865814 73.98901122 59.15465794 74.02877522 63.39100075 C74.05505348 66.66662502 74.06330542 69.94212553 74.06688499 73.21784592 C74.07172527 74.77820774 74.0832654 76.338565 74.10192299 77.89882278 C74.21099067 87.62753476 74.07821191 96.67258261 67.68359375 104.60546875 C60.05737512 110.64603796 53.74043131 112.27096013 43.97558594 112.32910156 C42.66692566 112.33870911 41.35826538 112.34831665 40.00994873 112.35821533 C38.59257178 112.36306469 37.17519278 112.36734318 35.7578125 112.37109375 C35.03661476 112.37392113 34.31541702 112.3767485 33.57236481 112.37966156 C29.75478251 112.39460812 25.93723755 112.40386586 22.11962891 112.40820312 C18.20160776 112.41367735 14.28393594 112.43769597 10.36602402 112.46617508 C7.33059734 112.48491497 4.29525287 112.49001308 1.25977325 112.491539 C-0.18334612 112.49454113 -1.6264649 112.50248584 -3.06952667 112.51572418 C-12.65727801 112.59739527 -21.33163554 112.29358365 -29.6640625 107.10546875 C-37.94064518 98.0589714 -38.0992085 88.55000843 -38.015625 76.91796875 C-38.01900073 75.25227506 -38.02385961 73.58658378 -38.03012085 71.92089844 C-38.03745666 68.44442088 -38.02689423 64.96858942 -38.00341797 61.4921875 C-37.9749314 57.06049152 -37.99135327 52.63031 -38.02128029 48.19866943 C-38.03944322 44.76339534 -38.03355441 41.32847383 -38.02064133 37.89318848 C-38.01733207 36.26029272 -38.02130599 34.62736379 -38.03303909 32.99450684 C-38.08844325 23.11965306 -37.79470249 14.32565978 -30.90908813 6.53613281 C-22.59605822 -1.07148843 -10.47689502 0.00943649 0 0 Z " fill="#CECECE" transform="translate(377.3515625,193.83203125)"/>
<path d="M0 0 C1.51017904 -0.00202557 3.02035711 -0.00494101 4.53053284 -0.00869751 C7.6832925 -0.01309953 10.83579574 -0.00675977 13.98852539 0.00732422 C18.00404291 0.02440028 22.018958 0.01457175 26.03445339 -0.00339317 C29.14968802 -0.01430145 32.26478291 -0.0107524 35.38002205 -0.0030098 C36.8594069 -0.00102642 38.33880497 -0.00340062 39.81817436 -0.01044846 C50.5233615 -0.05026432 60.33412061 0.19194923 68.80859375 7.41015625 C75.55023675 15.94621667 74.96748305 24.60808117 74.91015625 34.9609375 C74.91285473 36.67912007 74.91674011 38.39730114 74.92175293 40.11547852 C74.92763127 43.70636619 74.91913911 47.2968543 74.90039062 50.88769531 C74.87760183 55.4741446 74.8907339 60.0596574 74.91468048 64.64607239 C74.92918375 68.19102951 74.92451182 71.73576721 74.91416931 75.2807312 C74.91151451 76.971101 74.91472758 78.66149119 74.92408752 80.35183716 C75.00056602 98.04268859 75.00056602 98.04268859 68.6328125 105.421875 C68.07464844 105.86789062 67.51648438 106.31390625 66.94140625 106.7734375 C66.10802734 107.46566406 66.10802734 107.46566406 65.2578125 108.171875 C60.57709479 111.22747866 56.25948842 111.69607433 50.77807617 111.68896484 C50.02941788 111.69568207 49.28075958 111.70239929 48.50941467 111.70932007 C46.04266662 111.72826518 43.57619121 111.73222262 41.109375 111.734375 C39.38690582 111.7408059 37.66443773 111.74753448 35.94197083 111.75454712 C32.33327707 111.76651155 28.72467898 111.77022886 25.1159668 111.76904297 C20.5059592 111.76883995 15.89656926 111.79612772 11.28670788 111.83058739 C7.72891966 111.85289514 4.1712791 111.85687931 0.61342812 111.85582352 C-1.08533542 111.85817419 -2.78410336 111.86696753 -4.48279762 111.88248825 C-22.2542774 112.02964774 -22.2542774 112.02964774 -29.64453125 105.65234375 C-30.09054688 105.09417969 -30.5365625 104.53601563 -30.99609375 103.9609375 C-31.45757812 103.40535156 -31.9190625 102.84976563 -32.39453125 102.27734375 C-35.45013491 97.59662604 -35.91873058 93.27901967 -35.91162109 87.79760742 C-35.91833832 87.04894913 -35.92505554 86.30029083 -35.93197632 85.52894592 C-35.95092143 83.06219787 -35.95487887 80.59572246 -35.95703125 78.12890625 C-35.96346215 76.40643707 -35.97019073 74.68396898 -35.97720337 72.96150208 C-35.9891678 69.35280832 -35.99288511 65.74421023 -35.99169922 62.13549805 C-35.9914962 57.52549045 -36.01878397 52.91610051 -36.05324364 48.30623913 C-36.07555139 44.74845091 -36.07953556 41.19081035 -36.07847977 37.63295937 C-36.08083044 35.93419583 -36.08962378 34.23542789 -36.1051445 32.53673363 C-36.24928213 15.13018418 -36.24928213 15.13018418 -30.015625 7.41015625 C-21.02013241 -0.11940422 -11.25781037 -0.05354806 0 0 Z " fill="#FED030" transform="translate(85.62109375,193.6015625)"/>
<path d="M0 0 C1.12298744 -0.01007584 1.12298744 -0.01007584 2.2686615 -0.02035522 C4.73540955 -0.03930033 7.20188496 -0.04325778 9.66870117 -0.04541016 C11.39117035 -0.05184105 13.11363844 -0.05856963 14.83610535 -0.06558228 C18.4447991 -0.0775467 22.05339719 -0.08126401 25.66210938 -0.08007812 C30.27211697 -0.07987511 34.88150691 -0.10716288 39.49136829 -0.14162254 C43.04915651 -0.1639303 46.60679708 -0.16791447 50.16464806 -0.16685867 C51.8634116 -0.16920935 53.56217953 -0.17800268 55.26087379 -0.19352341 C72.54043202 -0.33660947 72.54043202 -0.33660947 80.38745117 5.86083984 C88.04600931 14.85230338 87.85220534 25.52952286 87.79760742 36.79052734 C87.7996337 38.27685692 87.80254973 39.76318551 87.80630493 41.24951172 C87.81070228 44.34921835 87.80438163 47.44866383 87.7902832 50.54833984 C87.77319262 54.4954508 87.78304784 58.44194951 87.8010006 62.38903809 C87.81190904 65.4536591 87.80836 68.51813808 87.80061722 71.58276367 C87.79863465 73.03702876 87.80100509 74.4913073 87.80805588 75.94555664 C87.84830979 86.57799612 87.5528037 96.30779506 80.38745117 104.72021484 C71.88423337 111.43591928 63.2252858 110.91163919 52.90698242 110.89208984 C51.19358917 110.89987626 49.48019973 110.90854815 47.76681519 110.9180603 C44.18434102 110.93293741 40.6022612 110.93243742 37.01977539 110.921875 C32.45115213 110.91029395 27.8841528 110.94414504 23.31579781 110.99056435 C19.77931439 111.02017167 16.24321613 111.02176475 12.70663071 111.01554489 C11.02346456 111.0165648 9.34027499 111.02691708 7.65723038 111.04716873 C-1.82058207 111.14722678 -10.32613611 111.22741131 -17.60083008 104.29052734 C-25.13347178 96.39106363 -24.45014449 86.73420071 -24.32739258 76.53271484 C-24.32635318 74.817393 -24.32739705 73.10206877 -24.33041382 71.38674927 C-24.33023526 67.80759697 -24.3095594 64.22935403 -24.27319336 60.65039062 C-24.22775067 56.07963057 -24.22675198 51.51019214 -24.24022865 46.93926811 C-24.24693315 43.40284627 -24.23360293 39.86672187 -24.21397018 36.3303566 C-24.20631384 34.64558598 -24.20394984 32.96078215 -24.20714188 31.27599716 C-24.21273313 13.63496981 -24.21273313 13.63496981 -17.85473633 6.26708984 C-17.29657227 5.82107422 -16.7384082 5.37505859 -16.16333008 4.91552734 C-15.60774414 4.45404297 -15.0521582 3.99255859 -14.47973633 3.51708984 C-9.79901862 0.46148618 -5.48141224 -0.00710948 0 0 Z " fill="#535353" transform="translate(218.600830078125,339.70947265625)"/>
<path d="M0 0 C1.12298744 -0.01007584 1.12298744 -0.01007584 2.2686615 -0.02035522 C4.73540955 -0.03930033 7.20188496 -0.04325778 9.66870117 -0.04541016 C11.39117035 -0.05184105 13.11363844 -0.05856963 14.83610535 -0.06558228 C18.4447991 -0.0775467 22.05339719 -0.08126401 25.66210938 -0.08007812 C30.27211697 -0.07987511 34.88150691 -0.10716288 39.49136829 -0.14162254 C43.04915651 -0.1639303 46.60679708 -0.16791447 50.16464806 -0.16685867 C51.8634116 -0.16920935 53.56217953 -0.17800268 55.26087379 -0.19352341 C73.62479988 -0.34558874 73.62479988 -0.34558874 80.42260742 6.25537109 C80.86862305 6.90634766 81.31463867 7.55732422 81.77416992 8.22802734 C82.46639648 9.200625 82.46639648 9.200625 83.17260742 10.19287109 C86.04228306 15.10056478 86.65669841 19.01620295 86.68969727 24.70776367 C86.69641449 25.43691483 86.70313171 26.16606598 86.71005249 26.91731262 C86.72899328 29.31913132 86.73295483 31.72066993 86.73510742 34.12255859 C86.74153865 35.80018731 86.74826725 37.4778149 86.75527954 39.15544128 C86.76724291 42.66997883 86.77096139 46.18441815 86.76977539 49.69897461 C86.76957239 54.18792078 86.79685929 58.67623256 86.83131981 63.16502857 C86.85363158 66.63017125 86.85761161 70.09516236 86.85655594 73.56036949 C86.85890604 75.21447623 86.86769615 76.86858751 86.88322067 78.52262306 C86.96898148 88.60467324 86.8162394 95.89188687 80.14916992 104.04052734 C71.32187953 111.26285585 62.91289642 110.88271104 52.05541992 110.82177734 C50.35965757 110.82447592 48.66389674 110.82836138 46.96813965 110.83337402 C43.42432843 110.83925192 39.88092213 110.83076169 36.3371582 110.81201172 C31.81123875 110.7892229 27.28626831 110.80235523 22.76038361 110.82630157 C19.2617487 110.84080607 15.76333609 110.83613237 12.26469421 110.82579041 C10.59665309 110.82313594 8.92859131 110.82634747 7.26057434 110.83570862 C-9.87887993 110.91080536 -9.87887993 110.91080536 -17.58911133 104.68505859 C-25.21069368 95.57962836 -25.06389457 85.62163986 -25.03442383 74.23193359 C-25.03899438 72.67691319 -25.04430253 71.1218948 -25.05030823 69.56687927 C-25.05920339 66.3199743 -25.05685748 63.07331577 -25.046875 59.82641602 C-25.03538869 55.6897163 -25.05560933 51.5538707 -25.08479214 47.41728306 C-25.10324136 44.20939335 -25.10284448 41.00170507 -25.09715462 37.79377556 C-25.09700247 36.26972188 -25.1029574 34.7456536 -25.11544609 33.22165108 C-25.18335609 23.57807298 -24.93259211 14.66432358 -18.63598633 6.85302734 C-17.98500977 6.33740234 -17.3340332 5.82177734 -16.66333008 5.29052734 C-16.01493164 4.75427734 -15.3665332 4.21802734 -14.69848633 3.66552734 C-9.91821481 0.53209052 -5.6180484 -0.0072867 0 0 Z " fill="#2375BB" transform="translate(73.600830078125,339.70947265625)"/>
<path d="M0 0 C1.71532184 0.00103939 3.43064607 -0.00000448 5.14596558 -0.00302124 C8.72511787 -0.00284269 12.30336081 0.01783318 15.88232422 0.05419922 C20.45308427 0.09964191 25.02252271 0.1006406 29.59344673 0.08716393 C33.12986858 0.08045943 36.66599298 0.09378965 40.20235825 0.11342239 C41.88712887 0.12107873 43.57193269 0.12344274 45.25671768 0.1202507 C62.40293668 0.11481627 62.40293668 0.11481627 70.23046875 6.296875 C77.88902689 15.28833853 77.69522292 25.96555802 77.640625 37.2265625 C77.64265128 38.71289207 77.6455673 40.19922067 77.64932251 41.68554688 C77.65371986 44.7852535 77.6473992 47.88469898 77.63330078 50.984375 C77.6162102 54.93148596 77.62606542 58.87798467 77.64401817 62.82507324 C77.65492662 65.88969425 77.65137758 68.95417323 77.6436348 72.01879883 C77.64165223 73.47306391 77.64402267 74.92734245 77.65107346 76.3815918 C77.72874045 96.89610934 77.72874045 96.89610934 70.9296875 104.1640625 C70.37667969 104.78152344 69.82367188 105.39898437 69.25390625 106.03515625 C64.34026993 110.16642718 59.70790016 111.17068761 53.43603516 111.13061523 C52.67747726 111.13747849 51.91891937 111.14434174 51.13737488 111.15141296 C48.64347317 111.1696317 46.15020363 111.16585014 43.65625 111.16015625 C41.91278887 111.16472094 40.16932954 111.17002737 38.4258728 111.17604065 C34.77602824 111.18496247 31.12640259 111.18255987 27.4765625 111.17260742 C22.81386508 111.1611282 18.15192619 111.18131763 13.48932838 111.21052456 C9.88948821 111.22892889 6.2898283 111.22858554 2.68995285 111.22288704 C0.97166252 111.22273429 -0.7466404 111.22873993 -2.46488571 111.24117851 C-19.11780196 111.34474044 -19.11780196 111.34474044 -25.7578125 106.7265625 C-27.78125 104.7265625 -27.78125 104.7265625 -29.1328125 102.7265625 C-29.59429687 102.0665625 -30.05578125 101.4065625 -30.53125 100.7265625 C-30.93601562 100.0665625 -31.34078125 99.4065625 -31.7578125 98.7265625 C-32.28078918 97.90534409 -32.28078918 97.90534409 -32.81433105 97.0675354 C-34.12086598 93.82575161 -34.06907075 90.71377661 -34.08007812 87.27099609 C-34.09000793 86.52569641 -34.09993774 85.78039673 -34.11016846 85.01251221 C-34.13934317 82.54997025 -34.15300684 80.08768632 -34.1640625 77.625 C-34.1755751 75.90589394 -34.18709044 74.18678791 -34.1986084 72.46768188 C-34.21961166 68.86141773 -34.23130651 65.25524247 -34.23828125 61.64892578 C-34.24922017 57.04890817 -34.29721239 52.4500838 -34.35422516 47.85043907 C-34.39165997 44.29685149 -34.40189881 40.7435454 -34.404953 37.18977737 C-34.41097099 35.49541355 -34.42690896 33.8010526 -34.45332336 32.106884 C-34.71544218 13.99552516 -34.71544218 13.99552516 -27.7578125 6.7265625 C-19.85620114 -0.80491916 -10.20286769 -0.12276854 0 0 Z " fill="#2670E5" transform="translate(373.7578125,49.2734375)"/>
<path d="M0 0 C0.7387587 -0.0065712 1.4775174 -0.0131424 2.23866272 -0.01991272 C4.67831535 -0.03958798 7.11790657 -0.05129577 9.55761719 -0.0612793 C10.39347099 -0.06535482 11.2293248 -0.06943035 12.09050751 -0.07362938 C16.51525116 -0.09446613 20.93996404 -0.10877784 25.36474609 -0.11816406 C29.92206139 -0.12921985 34.47888729 -0.1636168 39.03602982 -0.20333576 C42.55176671 -0.22954855 46.0673878 -0.23786004 49.58321381 -0.24144554 C51.26245171 -0.24629993 52.94168484 -0.25788108 54.62082672 -0.27648354 C71.74042094 -0.45434705 71.74042094 -0.45434705 79.59277344 5.74731445 C87.25133157 14.73877799 87.0575276 25.41599747 87.00292969 36.67700195 C87.00495597 38.16333152 87.00787199 39.64966012 87.0116272 41.13598633 C87.01602455 44.23569296 87.00970389 47.33513843 86.99560547 50.43481445 C86.97851489 54.38192541 86.98837011 58.32842412 87.00632286 62.2755127 C87.01723131 65.34013371 87.01368227 68.40461269 87.00593948 71.46923828 C87.00395692 72.92350337 87.00632735 74.37778191 87.01337814 75.83203125 C87.05363206 86.46447073 86.75812597 96.19426967 79.59277344 104.60668945 C71.09257895 111.32000612 62.53068084 110.74984622 52.22558594 110.6730957 C50.52742959 110.67325088 48.82927288 110.674743 47.13111877 110.67750549 C43.58310162 110.67888544 40.03549069 110.66639831 36.48754883 110.64355469 C31.95268299 110.61514942 27.41849031 110.61791864 22.88357449 110.6306448 C19.38070481 110.6376176 15.87798923 110.62979482 12.37513924 110.61738777 C10.7034877 110.61289035 9.03181952 110.61252144 7.36016655 110.61645317 C5.01996113 110.61938179 2.68066615 110.60278182 0.34057617 110.58105469 C-0.3416954 110.58555634 -1.02396698 110.59005798 -1.72691345 110.59469604 C-8.63769622 110.48873021 -14.47706762 108.09544215 -19.39550781 103.17700195 C-25.84788654 95.33016058 -25.14396304 86.1811239 -25.09472656 76.5871582 C-25.1006455 74.87519334 -25.10789641 73.16323262 -25.1164093 71.45127869 C-25.12824788 67.87468798 -25.12165224 64.29872121 -25.10229492 60.72216797 C-25.07942027 56.16136835 -25.10619284 51.60243348 -25.14735699 47.04181767 C-25.17305579 43.50959344 -25.17032239 39.97780826 -25.15946388 36.44552422 C-25.15798717 34.76516464 -25.16555059 33.08476971 -25.18271446 31.40449715 C-25.26464183 21.83154274 -25.05857449 13.74942677 -18.39550781 6.17700195 C-12.60594156 0.82113423 -7.61969505 0.02956267 0 0 Z " fill="#D1411F" transform="translate(219.3955078125,194.822998046875)"/>
<path d="M0 0 C1.120578 -0.01248528 1.120578 -0.01248528 2.26379395 -0.02522278 C4.72572089 -0.04925406 7.18738238 -0.05808727 9.64941406 -0.06469727 C11.36948726 -0.07367027 13.08955969 -0.08279223 14.80963135 -0.09205627 C18.41412244 -0.10853117 22.01852083 -0.11624339 25.62304688 -0.11914062 C30.22410977 -0.12451665 34.8242915 -0.16217031 39.42510605 -0.20788479 C42.97864905 -0.23774703 46.53198243 -0.24486619 50.08563995 -0.24586678 C51.78080522 -0.25005249 53.47597208 -0.26242011 55.17101288 -0.28338432 C72.46435549 -0.48020976 72.46435549 -0.48020976 79.41503906 5.30639648 C84.7651613 10.79731141 86.8682119 16.43482835 86.8190918 24.02075195 C86.82595505 24.76955627 86.8328183 25.5183606 86.83988953 26.28985596 C86.85810583 28.75129466 86.85432706 31.2120927 86.84863281 33.67358398 C86.85319763 35.39462489 86.8585041 37.11566398 86.86451721 38.83670044 C86.87343856 42.43946752 86.87103699 46.04201284 86.86108398 49.64477539 C86.84960498 54.24694242 86.86979404 58.84834092 86.89900112 63.45040703 C86.91740703 67.00392468 86.91706179 70.55725975 86.9113636 74.11081314 C86.91121087 75.80677492 86.917215 77.50274946 86.92965508 79.19866562 C87.04148406 96.94510228 87.04148406 96.94510228 80.66894531 104.32983398 C80.11078125 104.77584961 79.55261719 105.22186523 78.97753906 105.68139648 C78.14416016 106.37362305 78.14416016 106.37362305 77.29394531 107.07983398 C72.5880722 110.15185926 68.23230534 110.60762146 62.72241211 110.61279297 C61.96400024 110.62111649 61.20558838 110.62944 60.42419434 110.63801575 C57.92499609 110.66204695 55.42605923 110.67087962 52.92675781 110.67749023 C51.18186874 110.68646225 49.43698044 110.6955842 47.6920929 110.70484924 C44.03632745 110.72132341 40.38065342 110.7290364 36.72485352 110.73193359 C32.05419616 110.73731383 27.3844051 110.77498537 22.71399212 110.82067776 C19.10987762 110.85050987 15.50597014 110.85765849 11.90174294 110.85865974 C10.18063199 110.86285034 8.45951977 110.87523784 6.73853111 110.89617729 C-9.8923155 111.08241217 -9.8923155 111.08241217 -16.58496094 105.30639648 C-18.64355469 103.17358398 -18.64355469 103.17358398 -20.02246094 101.18139648 C-20.49554688 100.51881836 -20.96863281 99.85624023 -21.45605469 99.17358398 C-23.85501992 95.20574529 -23.74490134 91.41232948 -23.76196289 86.93261719 C-23.76853409 86.18425095 -23.77510529 85.4358847 -23.78187561 84.6648407 C-23.80159032 82.18728532 -23.81326867 79.70979058 -23.82324219 77.23217773 C-23.82731771 76.38437429 -23.83139324 75.53657085 -23.83559227 74.6630764 C-23.85644775 70.17349873 -23.87075029 65.68395156 -23.88012695 61.19433594 C-23.89117509 56.56861356 -23.92555781 51.94337438 -23.96529865 47.31782246 C-23.99151195 43.75147133 -23.99982308 40.18523437 -24.00340843 36.61879539 C-24.00826421 34.91443821 -24.01984934 33.21008578 -24.03844643 31.50582314 C-24.22084737 13.67863177 -24.22084737 13.67863177 -17.83886719 6.28295898 C-17.28070313 5.83694336 -16.72253906 5.39092773 -16.14746094 4.93139648 C-15.591875 4.46991211 -15.03628906 4.00842773 -14.46386719 3.53295898 C-9.79187942 0.48305429 -5.47170234 0.00521611 0 0 Z " fill="#1D6F44" transform="translate(218.5849609375,49.693603515625)"/>
<path d="M0 0 C1.120578 -0.01248528 1.120578 -0.01248528 2.26379395 -0.02522278 C4.72572089 -0.04925406 7.18738238 -0.05808727 9.64941406 -0.06469727 C11.36948726 -0.07367027 13.08955969 -0.08279223 14.80963135 -0.09205627 C18.41412244 -0.10853117 22.01852083 -0.11624339 25.62304688 -0.11914062 C30.22410977 -0.12451665 34.8242915 -0.16217031 39.42510605 -0.20788479 C42.97864905 -0.23774703 46.53198243 -0.24486619 50.08563995 -0.24586678 C51.78080522 -0.25005249 53.47597208 -0.26242011 55.17101288 -0.28338432 C72.46435549 -0.48020976 72.46435549 -0.48020976 79.41503906 5.30639648 C84.7651613 10.79731141 86.8682119 16.43482835 86.8190918 24.02075195 C86.82595505 24.76955627 86.8328183 25.5183606 86.83988953 26.28985596 C86.85810583 28.75129466 86.85432706 31.2120927 86.84863281 33.67358398 C86.85319763 35.39462489 86.8585041 37.11566398 86.86451721 38.83670044 C86.87343856 42.43946752 86.87103699 46.04201284 86.86108398 49.64477539 C86.84960498 54.24694242 86.86979404 58.84834092 86.89900112 63.45040703 C86.91740703 67.00392468 86.91706179 70.55725975 86.9113636 74.11081314 C86.91121087 75.80677492 86.917215 77.50274946 86.92965508 79.19866562 C87.04148406 96.94510228 87.04148406 96.94510228 80.66894531 104.32983398 C80.11078125 104.77584961 79.55261719 105.22186523 78.97753906 105.68139648 C78.14416016 106.37362305 78.14416016 106.37362305 77.29394531 107.07983398 C72.5880722 110.15185926 68.23230534 110.60762146 62.72241211 110.61279297 C61.96400024 110.62111649 61.20558838 110.62944 60.42419434 110.63801575 C57.92499609 110.66204695 55.42605923 110.67087962 52.92675781 110.67749023 C51.18186874 110.68646225 49.43698044 110.6955842 47.6920929 110.70484924 C44.03632745 110.72132341 40.38065342 110.7290364 36.72485352 110.73193359 C32.05419616 110.73731383 27.3844051 110.77498537 22.71399212 110.82067776 C19.10987762 110.85050987 15.50597014 110.85765849 11.90174294 110.85865974 C10.18063199 110.86285034 8.45951977 110.87523784 6.73853111 110.89617729 C-9.8923155 111.08241217 -9.8923155 111.08241217 -16.58496094 105.30639648 C-18.64355469 103.17358398 -18.64355469 103.17358398 -20.02246094 101.18139648 C-20.49554688 100.51881836 -20.96863281 99.85624023 -21.45605469 99.17358398 C-23.85501992 95.20574529 -23.74490134 91.41232948 -23.76196289 86.93261719 C-23.76853409 86.18425095 -23.77510529 85.4358847 -23.78187561 84.6648407 C-23.80159032 82.18728532 -23.81326867 79.70979058 -23.82324219 77.23217773 C-23.82731771 76.38437429 -23.83139324 75.53657085 -23.83559227 74.6630764 C-23.85644775 70.17349873 -23.87075029 65.68395156 -23.88012695 61.19433594 C-23.89117509 56.56861356 -23.92555781 51.94337438 -23.96529865 47.31782246 C-23.99151195 43.75147133 -23.99982308 40.18523437 -24.00340843 36.61879539 C-24.00826421 34.91443821 -24.01984934 33.21008578 -24.03844643 31.50582314 C-24.22084737 13.67863177 -24.22084737 13.67863177 -17.83886719 6.28295898 C-17.28070313 5.83694336 -16.72253906 5.39092773 -16.14746094 4.93139648 C-15.591875 4.46991211 -15.03628906 4.00842773 -14.46386719 3.53295898 C-9.79187942 0.48305429 -5.47170234 0.00521611 0 0 Z " fill="#255497" transform="translate(73.5849609375,49.693603515625)"/>
<path d="M0 0 C4.70067807 3.13378538 7.41716566 6.61021476 9 12 C9.55288228 17.95151209 9.46617603 23.87216625 9.390625 29.84375 C9.38315543 31.58108873 9.37746588 33.31843593 9.37347412 35.05578613 C9.35827404 39.60648262 9.31904155 44.15666038 9.2746582 48.70715332 C9.23358338 53.35938502 9.21543714 58.01170135 9.1953125 62.6640625 C9.15254118 71.77626833 9.0843589 80.88809086 9 90 C8.67 90 8.34 90 8 90 C7.99413376 89.04644119 7.98826752 88.09288239 7.98222351 87.11042786 C7.92498917 78.12025617 7.85222386 69.1303262 7.76428509 60.14040089 C7.71957393 55.51866718 7.68031945 50.89702178 7.65356445 46.27514648 C7.6275389 41.81404792 7.58714183 37.35328902 7.53681374 32.89240074 C7.52013995 31.19122228 7.50862885 29.48998506 7.50238609 27.78873634 C7.49275043 25.40412486 7.46469866 23.02038334 7.43237305 20.63598633 C7.43380814 19.93395584 7.43524323 19.23192535 7.4367218 18.50862122 C7.35336431 14.15555244 6.52512254 11.53201982 4 8 C3.67 7.34 3.34 6.68 3 6 C2.01 6.495 2.01 6.495 1 7 C1 6.34 1 5.68 1 5 C0.34 5 -0.32 5 -1 5 C-0.67 3.35 -0.34 1.7 0 0 Z " fill="#F5CB47" transform="translate(151,199)"/>
<path d="M0 0 C1.12013992 -0.01226624 1.12013992 -0.01226624 2.26290894 -0.02478027 C4.73564868 -0.04960087 7.20833097 -0.06614515 9.68115234 -0.08056641 C10.52770763 -0.08589008 11.37426292 -0.09121376 12.24647141 -0.09669876 C16.7307113 -0.12342082 21.2149235 -0.14279536 25.69921875 -0.15722656 C29.40064324 -0.17054396 33.10151358 -0.19835673 36.80273438 -0.23925781 C41.28017396 -0.28873209 45.75711247 -0.31336606 50.23481369 -0.32045364 C51.93557581 -0.32714253 53.63632779 -0.34230273 55.33693314 -0.36634445 C73.07700245 -0.60275159 73.07700245 -0.60275159 79.64208984 5.19287109 C80.13708984 6.18287109 80.13708984 6.18287109 80.64208984 7.19287109 C74.76708984 5.31787109 74.76708984 5.31787109 73.64208984 4.19287109 C71.31391021 3.82526378 68.98025134 3.49045528 66.64208984 3.19287109 C66.64208984 2.86287109 66.64208984 2.53287109 66.64208984 2.19287109 C42.55208984 1.86287109 18.46208984 1.53287109 -6.35791016 1.19287109 C-6.35791016 1.85287109 -6.35791016 2.51287109 -6.35791016 3.19287109 C-8.33791016 3.19287109 -10.31791016 3.19287109 -12.35791016 3.19287109 C-8.75949906 -0.40554 -4.78046033 0.02890911 0 0 Z " fill="#2A528F" transform="translate(73.35791015625,49.80712890625)"/>
<path d="M0 0 C3.59998558 4.69563337 4.14266828 7.53340369 4.11352539 13.38720703 C4.11367142 14.14827759 4.11381744 14.90934814 4.1139679 15.69348145 C4.11326993 18.21495389 4.10548294 20.73635292 4.09765625 23.2578125 C4.09579166 25.00373291 4.09436795 26.74965384 4.09336853 28.49557495 C4.08954659 33.09545328 4.07971905 37.69530014 4.06866455 42.29516602 C4.05844349 46.9871376 4.05386942 51.67911425 4.04882812 56.37109375 C4.03809651 65.58074301 4.02102394 74.79036889 4 84 C3.67 84 3.34 84 3 84 C2.99635437 83.06927673 2.99270874 82.13855347 2.98895264 81.17962646 C2.95201667 72.40984174 2.89425963 63.64040861 2.81609726 54.87089157 C2.77658224 50.36231781 2.74441364 45.85394054 2.72900391 41.34521484 C2.71386363 36.99426964 2.67946547 32.64386447 2.63169098 28.29315948 C2.61684992 26.63302554 2.60895742 24.97281451 2.60811615 23.31261444 C2.60575281 20.98744587 2.57872744 18.66377745 2.54589844 16.33886719 C2.5509288 15.6519429 2.55595917 14.96501862 2.56114197 14.25727844 C2.48570543 10.80579074 2.19960875 9.24127102 -0.03411865 6.5413208 C-1.00722992 5.778367 -1.00722992 5.778367 -2 5 C-1.34 5 -0.68 5 0 5 C0 3.35 0 1.7 0 0 Z " fill="#2B518A" transform="translate(156,60)"/>
<path d="M0 0 C0.66 0 1.32 0 2 0 C1.83923477 0.51242249 1.67846954 1.02484497 1.51283264 1.55279541 C0.83642721 4.78055889 0.83448878 7.8566437 0.79467773 11.15527344 C0.78477814 11.86786819 0.77487854 12.58046295 0.76467896 13.31465149 C0.73316861 15.66285922 0.70834809 18.01108715 0.68359375 20.359375 C0.66301517 21.99034136 0.64201846 23.62130249 0.62062073 25.2522583 C0.56549335 29.53969077 0.51604301 33.82717063 0.46777344 38.11468506 C0.41749017 42.49186406 0.36183976 46.86897447 0.30664062 51.24609375 C0.19917325 59.83067112 0.09770304 68.41530598 0 77 C0.66 77 1.32 77 2 77 C2 79.64 2 82.28 2 85 C-1.16392343 81.83607657 -1.11705892 79.00579776 -1.13552856 74.69897461 C-1.13249222 73.62583008 -1.13249222 73.62583008 -1.12939453 72.53100586 C-1.13114685 71.77300186 -1.13289917 71.01499786 -1.13470459 70.23402405 C-1.1391072 67.72760735 -1.13619099 65.22126117 -1.1328125 62.71484375 C-1.13348593 60.97514329 -1.13445628 59.23544293 -1.13571167 57.4957428 C-1.13718643 53.84993595 -1.13504093 50.20415361 -1.13037109 46.55834961 C-1.12466971 41.87842583 -1.12795681 37.19855934 -1.13394356 32.51863766 C-1.13755154 28.92679917 -1.13640956 25.33497434 -1.13381577 21.74313545 C-1.13314737 20.01710567 -1.13397187 18.29107466 -1.13629532 16.56504631 C-1.13882616 14.15653049 -1.13497531 11.74810842 -1.12939453 9.33959961 C-1.13141876 8.62214569 -1.13344299 7.90469177 -1.13552856 7.16549683 C-1.1142654 2.22853079 -1.1142654 2.22853079 0 0 Z " fill="#F6CD46" transform="translate(51,209)"/>
<path d="M0 0 C10.08356368 -0.04635541 20.16710198 -0.08188554 30.25075054 -0.10362434 C34.93307448 -0.11405826 39.61532547 -0.12821035 44.29760742 -0.15087891 C48.81688465 -0.17262119 53.33609175 -0.18457158 57.85541725 -0.18975449 C59.57897864 -0.19344774 61.30253623 -0.20065974 63.02606773 -0.21146011 C65.44153492 -0.22599345 67.85671287 -0.22797717 70.2722168 -0.22705078 C70.98359802 -0.23424133 71.69497925 -0.24143188 72.42791748 -0.24884033 C76.39571246 -0.23239108 79.42571404 0.25307845 83 2 C79.86650268 3.04449911 79.01031744 2.93423645 76 2 C75.67 2.99 75.34 3.98 75 5 C74.01 4.01 74.01 4.01 73 3 C73 2.67 73 2.34 73 2 C48.91 1.67 24.82 1.34 0 1 C0 0.67 0 0.34 0 0 Z " fill="#306ED3" transform="translate(356,50)"/>
<path d="M0 0 C8.27546642 -0.04635203 16.55087855 -0.08188373 24.82644272 -0.10362434 C28.66917254 -0.11405904 32.5118135 -0.12821245 36.35449219 -0.15087891 C40.06328453 -0.17261857 43.77199144 -0.18457099 47.48084259 -0.18975449 C48.89542231 -0.19344823 50.30999739 -0.2006612 51.72454071 -0.21146011 C53.70661352 -0.2259891 55.6887724 -0.22681704 57.67089844 -0.22705078 C58.79896912 -0.231492 59.92703979 -0.23593323 61.08929443 -0.24050903 C63.9404054 -0.00492425 65.58701141 0.51738939 68 2 C66.68 2.33 65.36 2.66 64 3 C64 3.99 64 4.98 64 6 C62.68 6 61.36 6 60 6 C60.33 4.68 60.66 3.36 61 2 C30.805 1.505 30.805 1.505 0 1 C0 0.67 0 0.34 0 0 Z " fill="#2C72AE" transform="translate(80,340)"/>
<path d="M0 0 C0.66 0 1.32 0 2 0 C2 0.66 2 1.32 2 2 C2.66 2 3.32 2 4 2 C4.33 1.34 4.66 0.68 5 0 C5.66 0 6.32 0 7 0 C5.3693531 5.38113477 2.01965412 10.10440215 -2.7734375 13.11328125 C-6.22140974 14.70175754 -9.22741177 15.34296257 -13 15 C-12 13 -12 13 -9.1875 11.875 C-6 11 -6 11 -2 11 C-2 10.01 -2 9.02 -2 8 C-1.01 8 -0.02 8 1 8 C0.67 7.34 0.34 6.68 0 6 C-0.039992 4.00039988 -0.04346799 1.99952758 0 0 Z " fill="#F6CC4B" transform="translate(152,290)"/>
<path d="M0 0 C0.66 0 1.32 0 2 0 C1.47470631 4.1088041 0.33192009 6.25519841 -2.4375 9.3125 C-3.05496094 10.00988281 -3.67242187 10.70726562 -4.30859375 11.42578125 C-6 13 -6 13 -8 13 C-8.33 11.02 -8.66 9.04 -9 7 C-7.68 6.34 -6.36 5.68 -5 5 C-5 5.66 -5 6.32 -5 7 C-4.34 7 -3.68 7 -3 7 C-3 6.01 -3 5.02 -3 4 C-2.01 4 -1.02 4 0 4 C0 2.68 0 1.36 0 0 Z " fill="#2A6FDB" transform="translate(447,144)"/>
<path d="M0 0 C0.99 0 1.98 0 3 0 C2.67966374 5.28554836 -0.27017327 8.5274027 -4 12 C-7.375 13.9375 -7.375 13.9375 -10 15 C-10 14.01 -10 13.02 -10 12 C-9.01 12 -8.02 12 -7 12 C-6.87625 11.195625 -6.7525 10.39125 -6.625 9.5625 C-6.41875 8.716875 -6.2125 7.87125 -6 7 C-5.34 6.67 -4.68 6.34 -4 6 C-3.01 6.33 -2.02 6.66 -1 7 C-0.67 4.69 -0.34 2.38 0 0 Z " fill="#29528A" transform="translate(156,144)"/>
<path d="M0 0 C0.66 0.33 1.32 0.66 2 1 C1.67 1.66 1.34 2.32 1 3 C0.34 3 -0.32 3 -1 3 C-1.04898438 3.69867188 -1.09796875 4.39734375 -1.1484375 5.1171875 C-1.22320312 6.02726563 -1.29796875 6.93734375 -1.375 7.875 C-1.44460937 8.77992188 -1.51421875 9.68484375 -1.5859375 10.6171875 C-2 13 -2 13 -4 15 C-4.99 15 -5.98 15 -7 15 C-6.68383092 8.83470299 -3.50784939 4.82731567 0 0 Z " fill="#C84525" transform="translate(202,200)"/>
<path d="M0 0 C4.03384128 2.07143201 5.92856799 3.96615872 8 8 C7.34 8 6.68 8 6 8 C6 7.34 6 6.68 6 6 C4.6078125 6.3403125 4.6078125 6.3403125 3.1875 6.6875 C0 7 0 7 -1.875 5.5625 C-2.431875 4.7890625 -2.431875 4.7890625 -3 4 C-2.01 3.67 -1.02 3.34 0 3 C0 2.01 0 1.02 0 0 Z " fill="#2C6FD6" transform="translate(439,53)"/>
<path d="M0 0 C0 0.66 0 1.32 0 2 C-0.969375 2.598125 -1.93875 3.19625 -2.9375 3.8125 C-6.20119997 5.68183551 -6.20119997 5.68183551 -6.875 8.75 C-6.91625 9.4925 -6.9575 10.235 -7 11 C-8.32 11 -9.64 11 -11 11 C-9.7672897 6.34309441 -5.30909278 0 0 0 Z " fill="#3371A6" transform="translate(63,342)"/>
<path d="M0 0 C-0.33 1.32 -0.66 2.64 -1 4 C-4.33333333 4 -7.66666667 4 -11 4 C-7.64191281 0.32209498 -4.88401581 -0.13200043 0 0 Z " fill="#F8CE44" transform="translate(71,195)"/>
<path d="M0 0 C0.66 0 1.32 0 2 0 C2.33 0.66 2.66 1.32 3 2 C5.52733235 2.65555119 5.52733235 2.65555119 8 3 C7.67 4.32 7.34 5.64 7 7 C8.65 7.33 10.3 7.66 12 8 C12 8.66 12 9.32 12 10 C6.12871177 8.74186681 3.34844493 5.73769335 0 1 C0 0.67 0 0.34 0 0 Z " fill="#2B4F81" transform="translate(53,149)"/>
<path d="M0 0 C0.99 0 1.98 0 3 0 C1.47291037 3.43595166 -0.59927045 6.11912454 -3 9 C-3.99 8.67 -4.98 8.34 -6 8 C-5.67 7.01 -5.34 6.02 -5 5 C-4.01 5.33 -3.02 5.66 -2 6 C-1.855625 5.195625 -1.71125 4.39125 -1.5625 3.5625 C-1 1 -1 1 0 0 Z " fill="#BB4929" transform="translate(300,292)"/>
<path d="M0 0 C5.70629354 0.42797202 9.41078616 2.84345952 14 6 C11 6 11 6 9.25 5.0625 C6.23469916 3.63860793 3.29232427 3.37988357 0 3 C0 2.01 0 1.02 0 0 Z " fill="#2C4E82" transform="translate(140,50)"/>
<path d="M0 0 C2.475 0.495 2.475 0.495 5 1 C5.33 1.99 5.66 2.98 6 4 C6.99 4.33 7.98 4.66 9 5 C8.67 5.99 8.34 6.98 8 8 C6.84772177 7.23883449 5.7033614 6.46567307 4.5625 5.6875 C3.92441406 5.25824219 3.28632813 4.82898438 2.62890625 4.38671875 C1 3 1 3 0 0 Z " fill="#C2432B" transform="translate(199,295)"/>
<path d="M0 0 C-4.58031088 2.99481865 -4.58031088 2.99481865 -7 4 C-9.4375 3.25 -9.4375 3.25 -11 2 C-3.57142857 -1.57142857 -3.57142857 -1.57142857 0 0 Z " fill="#C1452A" transform="translate(216,196)"/>
<path d="M0 0 C0.66 0.33 1.32 0.66 2 1 C-1.56430755 4.14985318 -4.40693504 6.5140084 -9 8 C-7.94660446 4.72276944 -6.36236741 3.39539906 -3.5 1.6875 C-2.345 1.130625 -1.19 0.57375 0 0 Z " fill="#366FCD" transform="translate(354,51)"/>
<path d="M0 0 C0.88336837 2.4667645 1.1312406 3.63859372 0.22265625 6.140625 C-0.16019531 6.83671875 -0.54304688 7.5328125 -0.9375 8.25 C-1.31777344 8.95640625 -1.69804687 9.6628125 -2.08984375 10.390625 C-2.39019531 10.92171875 -2.69054687 11.4528125 -3 12 C-3.66 10.68 -4.32 9.36 -5 8 C-4.360625 7.236875 -3.72125 6.47375 -3.0625 5.6875 C-0.85767219 3.11753287 -0.85767219 3.11753287 0 0 Z " fill="#296748" transform="translate(304,140)"/>
<path d="M0 0 C0.66 0.66 1.32 1.32 2 2 C0.8553125 2.5878125 0.8553125 2.5878125 -0.3125 3.1875 C-3.25691758 5.17327 -4.27467054 6.96013381 -6 10 C-6.66 10 -7.32 10 -8 10 C-6.5682479 4.98886765 -4.01554307 3.05530451 0 0 Z " fill="#2C4E82" transform="translate(60,53)"/>
<path d="M0 0 C0.66 0.33 1.32 0.66 2 1 C1.625 3.4375 1.625 3.4375 1 6 C0.01 6.495 0.01 6.495 -1 7 C-1.66 6.34 -2.32 5.68 -3 5 C-1.125 1.125 -1.125 1.125 0 0 Z " fill="#256B49" transform="translate(203,54)"/>
<path d="M0 0 C3.73884332 2.65654657 5.64978174 4.58110387 7 9 C5.125 8.8125 5.125 8.8125 3 8 C1.8125 5.625 1.8125 5.625 1 3 C0.67 2.01 0.34 1.02 0 0 Z " fill="#BD4632" transform="translate(296,199)"/>
<path d="M0 0 C0.66 0 1.32 0 2 0 C1.5206753 4.31392226 0.2542015 6.16569547 -3 9 C-3 7.35 -3 5.7 -3 4 C-2.01 4 -1.02 4 0 4 C0 2.68 0 1.36 0 0 Z " fill="#366CC8" transform="translate(447,144)"/>
<path d="M0 0 C0.99 0 1.98 0 3 0 C2.5206753 4.31392226 1.2542015 6.16569547 -2 9 C-1.34 6.03 -0.68 3.06 0 0 Z " fill="#304F81" transform="translate(156,144)"/>
<path d="M0 0 C2.09749995 2.35968744 2.96905704 3.54616994 3.1875 6.75 C3.0946875 7.86375 3.0946875 7.86375 3 9 C2.34 9 1.68 9 1 9 C-0.4783226 6.04335481 -0.06032783 3.25770263 0 0 Z " fill="#C44122" transform="translate(195,282)"/>
<path d="M0 0 C0.66 0.33 1.32 0.66 2 1 C1.67 1.66 1.34 2.32 1 3 C0.34 3 -0.32 3 -1 3 C-1.33 4.32 -1.66 5.64 -2 7 C-2.99 7 -3.98 7 -5 7 C-3.35 4.69 -1.7 2.38 0 0 Z " fill="#BC4731" transform="translate(202,200)"/>
</svg>
