<?xml version="1.0" encoding="UTF-8"?>
<svg version="1.1" xmlns="http://www.w3.org/2000/svg" width="500" height="500">
<path d="M0 0 C0.69696991 -0.00686325 1.39393982 -0.0137265 2.11203003 -0.02079773 C4.39610686 -0.03896736 6.67949006 -0.03524153 8.96362305 -0.02954102 C10.56634237 -0.03410861 12.16905973 -0.0394159 13.77177429 -0.04542542 C17.1247861 -0.05433802 20.47755952 -0.05195588 23.83056641 -0.04199219 C28.1040765 -0.0305239 32.37675762 -0.05068996 36.65015888 -0.07990932 C39.95927567 -0.09835816 43.26819715 -0.09796138 46.57735252 -0.0922718 C48.15164538 -0.09211955 49.72595229 -0.09808408 51.30019569 -0.11056328 C61.05006645 -0.17695376 70.01838278 0.03533323 78.06518555 6.26342773 C78.57178711 6.88733398 79.07838867 7.51124023 79.6003418 8.15405273 C80.12499023 8.76764648 80.64963867 9.38124023 81.19018555 10.01342773 C86.41360373 18.49282276 86.12093664 26.94055404 86.09643555 36.58374023 C86.1010046 38.1626101 86.10631231 39.74147797 86.11231995 41.32034302 C86.12122396 44.62030138 86.11885965 47.9200174 86.10888672 51.2199707 C86.09740957 55.42507554 86.11760248 59.62933901 86.14680386 63.83433342 C86.16525288 67.09283666 86.16485605 70.35114157 86.15916634 73.60968399 C86.15901413 75.15885726 86.16497394 76.70804484 86.17745781 78.25716782 C86.24475315 87.97669218 85.97492986 96.83276249 79.8034668 104.80639648 C79.17956055 105.31299805 78.5556543 105.81959961 77.9128418 106.34155273 C76.99245117 107.12852539 76.99245117 107.12852539 76.0534668 107.93139648 C67.52300611 113.18627178 58.96795717 112.87805696 49.2644043 112.87280273 C47.66311379 112.87991583 46.06182579 112.88761648 44.46054077 112.89587402 C41.11351426 112.90927584 37.76672346 112.91090715 34.41967773 112.9050293 C30.15390258 112.89913804 25.88926747 112.92971999 21.62371254 112.97014618 C18.31887843 112.99613575 15.01431474 112.99889047 11.70939255 112.99525452 C10.13787345 112.99693535 8.56634044 113.00647691 6.99492264 113.0243988 C-2.90220827 113.12486465 -11.52987739 112.68623441 -19.23495483 105.67785645 C-27.31706706 97.35113269 -26.79835418 87.08810282 -26.77075195 76.22436523 C-26.77532101 74.64549537 -26.78062872 73.06662749 -26.78663635 71.48776245 C-26.79554037 68.18780408 -26.79317605 64.88808807 -26.78320312 61.58813477 C-26.77172598 57.38302993 -26.79191889 53.17876645 -26.82112026 48.97377205 C-26.83956929 45.71526881 -26.83917246 42.4569639 -26.83348274 39.19842148 C-26.83333054 37.64924821 -26.83929035 36.10006063 -26.85177422 34.55093765 C-26.91896836 24.84602954 -26.68772443 15.92075011 -20.44262695 8.00170898 C-19.80969727 7.49510742 -19.17676758 6.98850586 -18.5246582 6.46655273 C-17.89946289 5.9419043 -17.27426758 5.41725586 -16.63012695 4.87670898 C-11.07377825 1.30815113 -6.59588975 0.02848422 0 0 Z " fill="#F19208" transform="translate(75.337158203125,193.595947265625)"/>
<path d="M0 0 C1.58126549 -0.00456862 3.162529 -0.00987621 4.74378967 -0.0158844 C8.04794411 -0.02478761 11.35185649 -0.0224244 14.65600586 -0.01245117 C18.87017615 -0.00096454 23.08350807 -0.02118189 27.29756832 -0.05036831 C30.56032025 -0.06879872 33.82287378 -0.06842433 37.08566475 -0.06273079 C38.63845559 -0.06257841 40.1912606 -0.06855304 41.74400139 -0.08102226 C51.85074005 -0.15076316 59.77707948 0.60181505 68.09765625 6.68359375 C74.17463925 12.90190194 75.89818017 19.66272394 75.94628906 28.1706543 C75.95373642 29.17397041 75.95373642 29.17397041 75.96133423 30.19755554 C75.97590864 32.40515179 75.98275126 34.61267609 75.98828125 36.8203125 C75.99403823 38.36245219 75.99979589 39.90459188 76.0055542 41.44673157 C76.01605192 44.68055554 76.02190207 47.91435475 76.02539062 51.14819336 C76.03086137 55.27262769 76.0548639 59.39672957 76.08336258 63.52105999 C76.10207944 66.70828678 76.10719943 69.89543509 76.1087265 73.08271217 C76.11173509 74.60201642 76.11970232 76.12131988 76.13291168 77.64056969 C76.29131664 97.26601669 76.29131664 97.26601669 69.66015625 104.74609375 C69.14195312 105.36097656 68.62375 105.97585937 68.08984375 106.609375 C59.55812191 113.36244974 50.32883514 113.01040591 39.96484375 112.9296875 C38.33537736 112.92984274 36.7059106 112.93133583 35.07644653 112.93409729 C31.67563382 112.93547571 28.27524571 112.9230147 24.87451172 112.90014648 C20.52911525 112.8717179 16.1844209 112.87451884 11.83897209 112.8872366 C8.4793606 112.89421018 5.11990973 112.88638614 1.76031876 112.87397957 C0.15844464 112.86948457 -1.44344683 112.8691111 -3.04532242 112.87304497 C-5.28724459 112.87597502 -7.52821774 112.85936807 -9.77001953 112.83764648 C-11.04193146 112.8322435 -12.31384338 112.82684052 -13.6242981 112.8212738 C-19.30275542 112.20815679 -24.00010734 110.06534162 -28.40234375 106.37109375 C-29.03527344 105.86449219 -29.66820312 105.35789062 -30.3203125 104.8359375 C-37.04682672 96.30644009 -36.80915067 86.42037158 -36.74609375 76.05859375 C-36.74879486 74.48258221 -36.75268241 72.9065723 -36.75769043 71.33056641 C-36.76355647 68.04248034 -36.75511707 64.7548317 -36.73632812 61.46679688 C-36.71353979 57.27740652 -36.7266786 53.08904157 -36.75061798 48.89968872 C-36.76515503 45.64974407 -36.76043408 42.40003775 -36.75010681 39.15008545 C-36.74746128 37.60650507 -36.75063168 36.06290221 -36.76002502 34.51934814 C-36.80607584 24.82813627 -36.50724361 15.97944651 -30.35546875 8.03125 C-29.7315625 7.52464844 -29.10765625 7.01804687 -28.46484375 6.49609375 C-27.85125 5.97144531 -27.23765625 5.44679688 -26.60546875 4.90625 C-18.11653793 -0.32304235 -9.65405044 -0.02447995 0 0 Z " fill="#07B5D4" transform="translate(85.21484375,48.56640625)"/>
<path d="M0 0 C0.6902829 -0.00511093 1.3805658 -0.01022186 2.09176636 -0.01548767 C4.35830522 -0.02931033 6.62453745 -0.02843234 8.89111328 -0.02612305 C10.47763175 -0.03001431 12.06414918 -0.03434986 13.65066528 -0.03910828 C16.97092063 -0.04655496 20.29106961 -0.04629072 23.61132812 -0.04101562 C27.85017038 -0.03522624 32.08857494 -0.05214645 36.32734489 -0.0753603 C39.60290032 -0.09014781 42.87835158 -0.09096249 46.15393448 -0.08785057 C47.71592195 -0.08836137 49.27791562 -0.09355346 50.83987045 -0.10366249 C69.4302264 -0.20921396 69.4302264 -0.20921396 77.08642578 6.3371582 C77.71033203 6.84375977 78.33423828 7.35036133 78.97705078 7.87231445 C85.59343729 16.42079702 85.41716322 26.13694571 85.33251953 36.46606445 C85.33267486 38.02204964 85.3341695 39.5780352 85.33692932 41.13401794 C85.33830632 44.37923498 85.3258723 47.62400629 85.30297852 50.86914062 C85.27457189 55.0069368 85.27734695 59.14399505 85.29006863 63.28184605 C85.29705732 66.48970224 85.28920073 69.69739096 85.2768116 72.90522575 C85.27232969 74.43008721 85.27193143 75.95496685 85.275877 77.47982979 C85.3029647 97.15177493 85.3029647 97.15177493 78.71142578 104.5871582 C78.19322266 105.20204102 77.67501953 105.81692383 77.14111328 106.45043945 C68.67559975 113.15110864 59.5551471 112.85216192 49.27001953 112.77075195 C47.665369 112.77090721 46.06071811 112.77240065 44.45606995 112.77516174 C41.10652928 112.77654015 37.75741971 112.76408077 34.40795898 112.74121094 C30.13215952 112.71280471 25.85707408 112.71557728 21.58122158 112.72830105 C18.27218106 112.73528209 14.96330325 112.72744178 11.65428352 112.71504402 C10.07835579 112.71055467 8.50241045 112.71017052 6.92648125 112.71410942 C-3.69901048 112.72824125 -12.43694099 112.51667858 -20.62451172 105.02075195 C-25.91869902 99.0144024 -27.28076203 92.31269779 -27.32470703 84.52172852 C-27.32967194 83.85124481 -27.33463684 83.18076111 -27.3397522 82.48995972 C-27.35432474 80.27755698 -27.36116835 78.065226 -27.36669922 75.8527832 C-27.37245566 74.30824788 -27.37821333 72.76371256 -27.38397217 71.21917725 C-27.39446886 67.98115711 -27.40031992 64.7431617 -27.40380859 61.50512695 C-27.40928397 57.37162667 -27.4332969 53.23845732 -27.46178055 49.10506058 C-27.48047811 45.91358511 -27.48561635 42.72218814 -27.48714447 39.53066254 C-27.49015658 38.00774074 -27.49813601 36.48481984 -27.51132965 34.96195221 C-27.59706976 24.30277537 -27.08955588 15.93213528 -20.16357422 7.2746582 C-14.07435568 1.91317554 -8.13702714 0.03019483 0 0 Z " fill="#3F9245" transform="translate(366.16357421875,193.725341796875)"/>
<path d="M0 0 C0.67717072 -0.0065712 1.35434143 -0.0131424 2.05203247 -0.01991272 C4.28184137 -0.03953985 6.51158319 -0.05128579 8.74145508 -0.0612793 C9.50770014 -0.06535482 10.2739452 -0.06943035 11.06340981 -0.07362938 C15.12088369 -0.09444709 19.17832421 -0.10876618 23.23583984 -0.11816406 C27.40396257 -0.12920746 31.5715484 -0.16359534 35.73948193 -0.20333576 C38.96449198 -0.22961449 42.18937635 -0.2378659 45.41448402 -0.24144554 C46.94972667 -0.24628406 48.48496474 -0.25781904 50.02010155 -0.27648354 C59.73826533 -0.38727746 68.45974648 -0.08578912 76.47583008 6.0012207 C76.98243164 6.61610352 77.4890332 7.23098633 78.01098633 7.86450195 C78.53563477 8.46649414 79.0602832 9.06848633 79.60083008 9.6887207 C84.76693111 18.41765003 84.53246888 27.42345554 84.50708008 37.2355957 C84.51165063 38.79061611 84.51695878 40.3456345 84.52296448 41.90065002 C84.53185964 45.14755499 84.52951373 48.39421352 84.51953125 51.64111328 C84.50804494 55.777813 84.52826558 59.9136586 84.55744839 64.05024624 C84.57589761 67.25813595 84.57550073 70.46582422 84.56981087 73.67375374 C84.56965872 75.19780742 84.57561365 76.7218757 84.58810234 78.24587822 C84.6559317 87.8780058 84.37450128 96.72313763 78.17895508 104.5793457 C77.54602539 105.08594727 76.9130957 105.59254883 76.26098633 106.11450195 C75.63579102 106.63915039 75.0105957 107.16379883 74.36645508 107.7043457 C68.77815553 111.29342395 64.2786895 112.55290584 57.64453125 112.59692383 C56.93780777 112.60539337 56.23108429 112.61386292 55.50294495 112.62258911 C53.18642753 112.64582377 50.8705798 112.64698441 48.55395508 112.64575195 C46.92881511 112.65286282 45.30367762 112.66056316 43.67854309 112.66882324 C40.27846291 112.6822378 36.87861479 112.68385101 33.47851562 112.67797852 C29.14433704 112.67209175 24.81128224 112.70264465 20.47732067 112.7430954 C17.12187311 112.76908475 13.76669192 112.7718396 10.41115761 112.76820374 C8.81451919 112.76988517 7.21786715 112.77943267 5.62132835 112.79734802 C-4.36256452 112.89704437 -12.80790638 112.41678434 -20.74494934 105.61975098 C-28.85226548 97.1434655 -28.37651073 86.32998655 -28.32495117 75.30200195 C-28.32697644 73.76700706 -28.32989164 72.23201311 -28.33364868 70.69702148 C-28.33805076 67.49298873 -28.33170981 64.2892083 -28.31762695 61.08520508 C-28.30053613 57.00009062 -28.31038876 52.91556767 -28.32834435 48.83047485 C-28.33923979 45.66466907 -28.33570961 42.49900109 -28.32796097 39.33319092 C-28.32597484 37.82785978 -28.32836177 36.3225157 -28.33539963 34.81719971 C-28.37667166 23.51139455 -27.85396615 14.40978321 -19.75854492 5.8371582 C-13.95125871 0.57469202 -7.51296251 0.06062017 0 0 Z " fill="#FEFEFE" transform="translate(221.926513671875,48.822998046875)"/>
<path d="M0 0 C1.52734625 -0.00270245 3.05469081 -0.00659109 4.58203125 -0.01159668 C7.76579346 -0.01745648 10.94910336 -0.00904395 14.1328125 0.00976562 C18.18420429 0.03255369 22.23453565 0.01941145 26.28588867 -0.00452423 C29.43464947 -0.01907849 32.58316482 -0.0143326 35.73193359 -0.00401306 C37.22444794 -0.00137224 38.71698564 -0.00452077 40.20947266 -0.01393127 C49.66336628 -0.06048007 59.66618136 -0.06804355 67.19921875 6.4276123 C75.71236819 15.1906393 75.4628108 25.21163681 75.43359375 36.7109375 C75.4381628 38.28980736 75.44347051 39.86867524 75.44947815 41.44754028 C75.45838217 44.74749865 75.45601785 48.04721467 75.44604492 51.34716797 C75.43456777 55.5522728 75.45476069 59.75653628 75.48396206 63.96153069 C75.50241108 67.22003392 75.50201425 70.47833883 75.49632454 73.73688126 C75.49617234 75.28605452 75.50213215 76.83524211 75.51461601 78.38436508 C75.58201607 88.11901473 75.27224374 96.90506177 69.17578125 104.93359375 C68.56089844 105.44019531 67.94601562 105.94679688 67.3125 106.46875 C66.71050781 106.99339844 66.10851562 107.51804687 65.48828125 108.05859375 C56.83111219 113.18222442 47.9273246 112.99045681 38.1953125 112.96484375 C36.66510794 112.96941498 35.13490542 112.97472332 33.60470581 112.98072815 C30.40907412 112.98962322 27.2136928 112.98727818 24.01806641 112.97729492 C19.95096143 112.96581855 15.88472648 112.98601399 11.81773567 113.01521206 C8.66041703 113.033683 5.50330264 113.03325997 2.34594345 113.02757454 C0.84783586 113.0274226 -0.65028673 113.03335962 -2.14834213 113.04586601 C-11.64137796 113.11396093 -21.59241413 113.12302625 -29.19894409 106.66404724 C-37.84938709 97.92118843 -37.45133428 86.9094601 -37.3984375 75.40234375 C-37.40046248 73.842533 -37.40337743 72.28272318 -37.40713501 70.72291565 C-37.41153715 67.46760975 -37.40519503 64.21255222 -37.39111328 60.95727539 C-37.37400816 56.80256385 -37.38388409 52.6484333 -37.40183067 48.49374294 C-37.41271373 45.27736599 -37.40920179 42.06112495 -37.4014473 38.84474373 C-37.3994585 37.31346631 -37.4018577 35.7821762 -37.40888596 34.25091362 C-37.44754973 23.46371129 -37.09736799 14.55758765 -29.19921875 6.4276123 C-21.08523054 -0.5689911 -10.10757527 -0.06373078 0 0 Z " fill="#2DB4E6" transform="translate(231,193.46875)"/>
<path d="M0 0 C0.67906906 -0.00511093 1.35813812 -0.01022186 2.05778503 -0.01548767 C4.2816167 -0.02928029 6.5051348 -0.02843467 8.72900391 -0.02612305 C10.28927727 -0.0300159 11.84954959 -0.03435178 13.40982056 -0.03910828 C16.67282554 -0.04654847 19.93572228 -0.04629543 23.19873047 -0.04101562 C27.3600994 -0.03522649 31.52102244 -0.05214901 35.68231773 -0.0753603 C38.90301054 -0.09016263 42.12359759 -0.0909605 45.34431839 -0.08785057 C46.87756864 -0.08836061 48.4108253 -0.09353808 49.94404221 -0.10366249 C61.25772612 -0.16920624 70.60957243 0.217157 79.17041016 8.40356445 C87.10169498 17.342589 84.99788328 32.80021468 84.95556641 43.9621582 C84.95301849 44.63998352 84.95047058 45.31780884 84.94784546 46.01617432 C84.9289998 50.35496191 84.89291008 54.69343239 84.85015869 59.03204346 C84.83040535 61.29309374 84.81872674 63.55407332 84.80859375 65.81518555 C84.78935425 69.54466697 84.74219873 73.27292879 84.67596436 77.00186157 C84.65430942 78.41563928 84.64062865 79.8295653 84.63555908 81.24349976 C84.59502421 89.87987938 84.01046863 97.10706815 78.83056641 104.2746582 C72.40335975 110.52120568 65.71169309 112.51494371 56.75292969 112.54931641 C56.0836142 112.55442734 55.41429871 112.55953827 54.72470093 112.56480408 C52.53333348 112.57859397 50.34228433 112.57775129 48.15087891 112.57543945 C46.61302577 112.57933246 45.0751737 112.58366837 43.537323 112.58842468 C40.32139595 112.5958643 37.10557873 112.59561227 33.88964844 112.59033203 C29.7888111 112.58454304 25.68842626 112.60146532 21.58766365 112.6246767 C18.41329362 112.63948081 15.23903086 112.64027667 12.06463242 112.63716698 C10.55371073 112.63767693 9.04278252 112.64285275 7.53189468 112.6529789 C-12.01640415 112.76792199 -12.01640415 112.76792199 -19.48193359 106.1496582 C-20.09681641 105.63145508 -20.71169922 105.11325195 -21.34521484 104.5793457 C-28.09110374 96.05670234 -27.74631727 86.84265048 -27.66552734 76.48950195 C-27.6656826 74.86243119 -27.66717592 73.23536006 -27.66993713 71.60829163 C-27.67131567 68.21167489 -27.65885388 64.81548323 -27.63598633 61.41894531 C-27.60758042 57.08261477 -27.61035242 52.74698827 -27.62307644 48.41060543 C-27.63005683 45.0552426 -27.62221789 41.70004027 -27.60981941 38.34469795 C-27.60532941 36.74644144 -27.60494649 35.14816756 -27.60888481 33.54990959 C-27.63283401 15.28491131 -27.63283401 15.28491131 -21.79443359 8.5246582 C-20.92818359 7.7821582 -20.06193359 7.0396582 -19.16943359 6.2746582 C-18.38568359 5.5527832 -17.60193359 4.8309082 -16.79443359 4.0871582 C-11.63228023 0.52281422 -6.14228398 0.02322297 0 0 Z " fill="#727272" transform="translate(76.16943359375,338.725341796875)"/>
<path d="M0 0 C0.98408592 -0.0098568 0.98408592 -0.0098568 1.98805237 -0.01991272 C4.14812359 -0.03953697 6.3081255 -0.05128626 8.46826172 -0.0612793 C9.2111935 -0.06535482 9.95412529 -0.06943035 10.71957016 -0.07362938 C14.65500352 -0.09444774 18.5904025 -0.1087655 22.52587891 -0.11816406 C26.5638752 -0.12919656 30.60131562 -0.16357145 34.63911629 -0.20333576 C37.76723155 -0.22964961 40.89521752 -0.23786905 44.02343369 -0.24144554 C45.51040255 -0.2462765 46.99736703 -0.2577892 48.48422623 -0.27648354 C57.97146113 -0.38831753 67.8674729 -0.41302115 75.47219849 6.04447937 C84.05885517 14.72303148 83.72481791 25.62369728 83.67138672 37.05200195 C83.67341199 38.58699684 83.67632718 40.12199079 83.68008423 41.65698242 C83.68448631 44.86101518 83.67814535 48.0647956 83.6640625 51.26879883 C83.64697167 55.35391329 83.6568243 59.43843623 83.67477989 63.52352905 C83.68567534 66.68933483 83.68214515 69.85500282 83.67439651 73.02081299 C83.67241038 74.52614412 83.67479731 76.03148821 83.68183517 77.5368042 C83.72310721 88.84260936 83.2004017 97.94422069 75.10498047 106.5168457 C69.31843868 111.76051364 62.91068555 112.29571333 55.42236328 112.33813477 C54.75333984 112.34309967 54.08431641 112.34806458 53.39501953 112.35317993 C51.19286042 112.36772303 48.99077337 112.37459094 46.78857422 112.38012695 C46.03211357 112.38295433 45.27565292 112.38578171 44.49626923 112.38869476 C40.49181268 112.40365697 36.48739188 112.41290471 32.48291016 112.41723633 C28.36635162 112.42271155 24.2501254 112.44672782 20.13367081 112.47520828 C16.95073522 112.49392288 13.76787821 112.49904496 10.58489227 112.5005722 C9.06837908 112.50358021 7.55186665 112.51154543 6.03540802 112.52475739 C-4.59289688 112.61073455 -14.08224299 112.51232732 -22.22314453 104.91918945 C-27.66044014 98.62040025 -28.84070328 91.63916537 -28.88818359 83.52587891 C-28.8931485 82.8779689 -28.8981134 82.2300589 -28.90322876 81.56251526 C-28.91776958 79.43009353 -28.92464 77.29774626 -28.93017578 75.1652832 C-28.93300316 74.43213583 -28.93583054 73.69898846 -28.93874359 72.9436245 C-28.95370619 69.06120827 -28.9629532 65.17882891 -28.96728516 61.29638672 C-28.97275504 57.30995797 -28.99675979 53.32387332 -29.02525711 49.33755207 C-29.04399651 46.25151119 -29.04909513 43.16555118 -29.05062103 40.07945824 C-29.05362437 38.61121942 -29.06157331 37.14298122 -29.07480621 35.67479897 C-29.16327471 25.10179812 -29.14179477 14.7381996 -21.46923828 6.64575195 C-15.0774793 1.25718384 -8.16982241 0.06807083 0 0 Z " fill="#336590" transform="translate(367.72705078125,48.822998046875)"/>
<path d="M0 0 C1.58126549 -0.00456862 3.162529 -0.00987621 4.74378967 -0.0158844 C8.04794411 -0.02478761 11.35185649 -0.0224244 14.65600586 -0.01245117 C18.87017615 -0.00096454 23.08350807 -0.02118189 27.29756832 -0.05036831 C30.56032025 -0.06879872 33.82287378 -0.06842433 37.08566475 -0.06273079 C38.63845559 -0.06257841 40.1912606 -0.06855304 41.74400139 -0.08102226 C59.8776881 -0.20615259 59.8776881 -0.20615259 66.51426697 6.06837463 C66.93366043 6.51889694 67.35305389 6.96941925 67.78515625 7.43359375 C62.78515625 5.43359375 62.78515625 5.43359375 60.57691956 4.37945557 C57.11575566 3.20679786 53.9140091 3.15351494 50.30444336 3.17480469 C49.56886703 3.17130005 48.83329071 3.16779541 48.07542419 3.16418457 C45.65435227 3.15541257 43.23357468 3.16119967 40.8125 3.16796875 C39.12528935 3.16662094 37.43807908 3.16467944 35.75086975 3.16217041 C32.21953626 3.15922542 28.68830411 3.16349723 25.15698242 3.17285156 C20.63194954 3.1842545 16.1071537 3.17767739 11.58212948 3.16570663 C8.1000032 3.15847863 4.6179331 3.16078014 1.13580513 3.16596222 C-0.5327501 3.16729566 -2.20131044 3.16566169 -3.8698597 3.16100311 C-6.20121906 3.15592146 -8.5321946 3.16367058 -10.86352539 3.17480469 C-11.55194519 3.17075623 -12.24036499 3.16670776 -12.949646 3.16253662 C-16.5083706 3.19400663 -19.25421822 3.35099903 -22.21484375 5.43359375 C-23.02013264 7.48360246 -23.02013264 7.48360246 -23.21484375 9.43359375 C-24.08109375 9.55734375 -24.08109375 9.55734375 -24.96484375 9.68359375 C-27.99694349 10.69429366 -29.23292967 11.92316925 -31.21484375 14.43359375 C-32.4924964 18.06903276 -32.4924964 18.06903276 -33.21484375 21.43359375 C-33.87484375 21.43359375 -34.53484375 21.43359375 -35.21484375 21.43359375 C-34.88484375 45.85359375 -34.55484375 70.27359375 -34.21484375 95.43359375 C-36.65178336 91.77818434 -36.47862413 90.00069411 -36.50537109 85.64233398 C-36.51208832 84.95570175 -36.51880554 84.26906952 -36.52572632 83.56163025 C-36.54474166 81.28840916 -36.54863338 79.01548323 -36.55078125 76.7421875 C-36.55721082 75.15617248 -36.56393931 73.57015866 -36.57095337 71.98414612 C-36.58293785 68.65436052 -36.58663341 65.3246787 -36.58544922 61.99487305 C-36.5852469 57.7504281 -36.61245301 53.50665928 -36.64699364 49.26237392 C-36.66936421 45.98243731 -36.67328354 42.70266016 -36.67222977 39.42265511 C-36.67457417 37.85951488 -36.68333158 36.29636948 -36.6988945 34.73330498 C-36.78668776 24.99755323 -36.5753747 16.06747302 -30.35546875 8.03125 C-29.7315625 7.52464844 -29.10765625 7.01804687 -28.46484375 6.49609375 C-27.85125 5.97144531 -27.23765625 5.44679688 -26.60546875 4.90625 C-18.11653793 -0.32304235 -9.65405044 -0.02447995 0 0 Z " fill="#2FA8BB" transform="translate(85.21484375,48.56640625)"/>
<path d="M0 0 C0.33 1.32 0.66 2.64 1 4 C0.34 4 -0.32 4 -1 4 C-1.33 6.31 -1.66 8.62 -2 11 C-2.99 11.33 -3.98 11.66 -5 12 C-5 37.41 -5 62.82 -5 89 C-7.1249108 84.7501784 -7.26185895 82.75831718 -7.29052734 78.09521484 C-7.29724457 77.40843658 -7.30396179 76.72165833 -7.31088257 76.0140686 C-7.32985826 73.74628426 -7.33378737 71.47879629 -7.3359375 69.2109375 C-7.34236885 67.62635173 -7.34909746 66.04176714 -7.35610962 64.45718384 C-7.36808353 61.13337455 -7.37179064 57.80966917 -7.37060547 54.48583984 C-7.37040298 50.24927062 -7.39763066 46.01337754 -7.43214989 41.776968 C-7.45451787 38.50132255 -7.4584399 35.2258368 -7.45738602 31.95012283 C-7.45972998 30.38977366 -7.46848483 28.82941926 -7.48405075 27.26914597 C-7.65807432 8.01282285 -7.65807432 8.01282285 -1.36508179 1.24057007 C-0.6893663 0.62648788 -0.6893663 0.62648788 0 0 Z " fill="#E4952A" transform="translate(56,201)"/>
<path d="M0 0 C5.20681909 5.727501 6.24554213 11.48893799 6.2746582 19.07763672 C6.27976913 19.74695221 6.28488007 20.4162677 6.29014587 21.10586548 C6.30393576 23.29723293 6.30309308 25.48828207 6.30078125 27.6796875 C6.30467426 29.21754063 6.30901017 30.7553927 6.31376648 32.29324341 C6.32120609 35.50917045 6.32095406 38.72498768 6.31567383 41.94091797 C6.30988484 46.0417553 6.32680712 50.14214015 6.3500185 54.24290276 C6.36482261 57.41727279 6.36561847 60.59153554 6.36250877 63.76593399 C6.36301872 65.27685567 6.36819455 66.78778389 6.37832069 68.29867172 C6.4896645 87.23484179 6.4896645 87.23484179 1.39595032 92.73068237 C0.70495491 93.3589946 0.70495491 93.3589946 0 94 C-0.20086443 90.28400809 -0.1519437 89.22791555 2 86 C2.66 86 3.32 86 4 86 C4 60.92 4 35.84 4 10 C3.34 10 2.68 10 2 10 C1.67 8.35 1.34 6.7 1 5 C0.67 5 0.34 5 0 5 C0 3.35 0 1.7 0 0 Z " fill="#2AA6BD" transform="translate(155,58)"/>
<path d="M0 0 C0.7734375 0.433125 0.7734375 0.433125 1.5625 0.875 C4.61892115 2.28565591 7.76538435 3.08454274 11 4 C11.33 4.33 11.66 4.66 12 5 C14.40250532 5.12489698 16.77772785 5.1860079 19.18188477 5.20532227 C19.93305573 5.21522186 20.68422668 5.22512146 21.4581604 5.23532104 C23.95254312 5.26702546 26.44694491 5.29172859 28.94140625 5.31640625 C30.66634123 5.33696807 32.39127108 5.35796433 34.11619568 5.37937927 C38.66506814 5.43467971 43.21398667 5.48405369 47.76293945 5.53222656 C52.40124633 5.58238354 57.03948598 5.63809983 61.67773438 5.69335938 C70.78509888 5.80103839 79.89252165 5.90246157 89 6 C89 6.33 89 6.66 89 7 C84.99940091 7.94602471 81.25573805 8.13787044 77.14941406 8.16113281 C76.48039062 8.16609772 75.81136719 8.17106262 75.12207031 8.17617798 C72.9199112 8.19072107 70.71782415 8.19758899 68.515625 8.203125 C67.75916435 8.20595238 67.0027037 8.20877975 66.22332001 8.21169281 C62.21886346 8.22665502 58.21444266 8.23590275 54.20996094 8.24023438 C50.0934024 8.2457096 45.97717618 8.26972587 41.86072159 8.29820633 C38.677786 8.31692093 35.49492899 8.32204301 32.31194305 8.32357025 C30.79542986 8.32657826 29.27891743 8.33454347 27.7624588 8.34775543 C8.29286913 8.50525375 8.29286913 8.50525375 1.9375 2.3125 C1.298125 1.549375 0.65875 0.78625 0 0 Z " fill="#49687B" transform="translate(346,153)"/>
<path d="M0 0 C0.98408592 -0.0098568 0.98408592 -0.0098568 1.98805237 -0.01991272 C4.14812359 -0.03953697 6.3081255 -0.05128626 8.46826172 -0.0612793 C9.2111935 -0.06535482 9.95412529 -0.06943035 10.71957016 -0.07362938 C14.65500352 -0.09444774 18.5904025 -0.1087655 22.52587891 -0.11816406 C26.5638752 -0.12919656 30.60131562 -0.16357145 34.63911629 -0.20333576 C37.76723155 -0.22964961 40.89521752 -0.23786905 44.02343369 -0.24144554 C45.51040255 -0.2462765 46.99736703 -0.2577892 48.48422623 -0.27648354 C57.23161761 -0.37959637 65.39741245 -0.10351474 73.27294922 4.17700195 C73.76794922 5.16700195 73.76794922 5.16700195 74.27294922 6.17700195 C73.16250244 5.68804443 72.05205566 5.19908691 70.90795898 4.6953125 C63.25095142 2.16258351 55.08139591 2.80916788 47.11279297 2.8840332 C45.35446028 2.88963664 43.59612288 2.8939032 41.83778381 2.89689636 C37.23624472 2.9082863 32.63499502 2.93770232 28.03356934 2.9710083 C23.32759514 3.00183612 18.62157366 3.01542873 13.91552734 3.03051758 C4.70120831 3.06257828 -4.51289706 3.11370288 -13.72705078 3.17700195 C-10.00157909 -0.54846974 -5.02865386 0.04189866 0 0 Z " fill="#3B647B" transform="translate(367.72705078125,48.822998046875)"/>
<path d="M0 0 C-6.3415497 4.64015832 -12.16625989 6.24831666 -20.109375 6.25878906 C-21.11816711 6.26404602 -21.11816711 6.26404602 -22.14733887 6.26940918 C-24.34833405 6.2781398 -26.54900212 6.27240839 -28.75 6.265625 C-30.29264385 6.26697415 -31.83528728 6.26891676 -33.37792969 6.27142334 C-36.60225495 6.27436286 -39.82646898 6.27011484 -43.05078125 6.26074219 C-47.1696661 6.24934832 -51.28829023 6.25591409 -55.40716553 6.26788712 C-58.59002625 6.27513747 -61.77282585 6.27280325 -64.95568848 6.26763153 C-66.47383658 6.26630381 -67.99199036 6.26791179 -69.51013184 6.27259064 C-71.63711099 6.27770838 -73.76367641 6.26987289 -75.890625 6.25878906 C-77.09750977 6.25719788 -78.30439453 6.25560669 -79.54785156 6.25396729 C-83.33776899 5.97515105 -86.39473828 5.16077848 -90 4 C-90 3.67 -90 3.34 -90 3 C-82.25 2.875 -82.25 2.875 -80 4 C-77.93847113 4.10187666 -75.87360358 4.13842188 -73.80957031 4.14526367 C-71.85679169 4.15483345 -71.85679169 4.15483345 -69.86456299 4.16459656 C-68.4357507 4.16612564 -67.00693792 4.16723938 -65.578125 4.16796875 C-64.1156206 4.1711818 -62.65311652 4.17454591 -61.19061279 4.17805481 C-58.12055721 4.18404933 -55.05052978 4.18589449 -51.98046875 4.18530273 C-48.05529028 4.18520136 -44.13029369 4.19882682 -40.20515823 4.21607494 C-37.18189676 4.22722268 -34.15867878 4.22922105 -31.13539886 4.22869301 C-29.68898647 4.22986997 -28.24257284 4.2342758 -26.79618073 4.24202538 C-24.76681364 4.25187612 -22.73739325 4.2476699 -20.70800781 4.24291992 C-19.55488098 4.24434494 -18.40175415 4.24576996 -17.21368408 4.24723816 C-13.85387837 3.98875843 -11.13812759 3.19751373 -8 2 C-8 1.34 -8 0.68 -8 0 C-4.94736336 -0.98120464 -3.05263664 -0.98120464 0 0 Z " fill="#4CACCB" transform="translate(298,300)"/>
<path d="M0 0 C-1.24556092 0.81928886 -2.49666635 1.63015186 -3.75 2.4375 C-4.79414063 3.11619141 -4.79414063 3.11619141 -5.859375 3.80859375 C-10.17313003 6.20949755 -14.18825286 6.13062685 -19.07592773 6.14526367 C-20.13277267 6.15030159 -20.13277267 6.15030159 -21.21096802 6.15544128 C-23.53519463 6.16492399 -25.85934901 6.16689296 -28.18359375 6.16796875 C-29.802577 6.17118289 -31.42155996 6.17454708 -33.0405426 6.17805481 C-36.43239007 6.18403915 -39.82421208 6.18589539 -43.21606445 6.18530273 C-47.55828951 6.18520108 -51.90035117 6.19885965 -56.2425375 6.21607494 C-59.58572639 6.22720251 -62.92887586 6.22922172 -66.27208138 6.22869301 C-67.87282945 6.22987174 -69.47357859 6.23428751 -71.0743084 6.24202538 C-73.3145475 6.25184182 -75.55443272 6.24894097 -77.79467773 6.24291992 C-79.70518166 6.24505745 -79.70518166 6.24505745 -81.65428162 6.24723816 C-84.87938407 6.00891314 -87.10485577 5.39104948 -90 4 C-90 3.67 -90 3.34 -90 3 C-88.02 3 -86.04 3 -84 3 C-84 3.66 -84 4.32 -84 5 C-74.81175783 4.89245253 -65.62359638 4.77980975 -56.43549728 4.66066074 C-52.16910098 4.60549532 -47.90269774 4.55208557 -43.63623047 4.50268555 C-39.51890407 4.45494782 -35.40165971 4.4026017 -31.28443146 4.34705925 C-29.71358533 4.3266783 -28.14271675 4.30795825 -26.57183075 4.29092598 C-24.37169788 4.26678748 -22.17171889 4.23674615 -19.97167969 4.20532227 C-18.0930423 4.18200584 -18.0930423 4.18200584 -16.17645264 4.15821838 C-12.48805137 4.01291328 -12.48805137 4.01291328 -9 3 C-8.67 2.01 -8.34 1.02 -8 0 C-4.99093136 -1.24513185 -3.0590674 -0.84653438 0 0 Z " fill="#D3A12D" transform="translate(153,300)"/>
<path d="M0 0 C9.21485876 -0.09303144 18.42955372 -0.16393197 27.64478111 -0.20724869 C31.92465277 -0.22804759 36.20420109 -0.2562227 40.48388672 -0.30175781 C44.62066411 -0.34549267 48.75713218 -0.36919487 52.89412308 -0.37950897 C54.46566252 -0.38685112 56.03718667 -0.40118766 57.60859299 -0.42292023 C74.96592142 -0.65323848 74.96592142 -0.65323848 82 4 C83.75888062 6.13909912 83.75888062 6.13909912 85 8 C84.443125 7.71125 83.88625 7.4225 83.3125 7.125 C80.91182195 5.95710257 78.48667104 4.97040821 76 4 C75.26828079 3.65595123 74.53656158 3.31190247 73.78266907 2.95742798 C70.37677206 1.78556708 67.51687284 1.71954039 63.91479492 1.68115234 C63.22156128 1.67110672 62.52832764 1.6610611 61.81408691 1.65071106 C59.53622217 1.61996637 57.25847449 1.60286855 54.98046875 1.5859375 C53.3957672 1.5672188 51.81107554 1.54764486 50.22639465 1.5272522 C46.06558066 1.475999 41.90473438 1.43633695 37.74377441 1.39910889 C33.49381568 1.35902642 29.24399048 1.30795346 24.99414062 1.2578125 C16.66285175 1.16113391 8.33149661 1.07670347 0 1 C0 0.67 0 0.34 0 0 Z " fill="#DF9232" transform="translate(69,194)"/>
<path d="M0 0 C-1.24556092 0.81928886 -2.49666635 1.63015186 -3.75 2.4375 C-4.44609375 2.88996094 -5.1421875 3.34242188 -5.859375 3.80859375 C-9.67707583 5.93340899 -13.09632267 6.1216871 -17.421875 6.09765625 C-18.44667969 6.09443359 -19.47148437 6.09121094 -20.52734375 6.08789062 C-21.59082031 6.07951172 -22.65429688 6.07113281 -23.75 6.0625 C-24.82894531 6.05798828 -25.90789062 6.05347656 -27.01953125 6.04882812 C-29.67974383 6.03705727 -32.33984365 6.02061399 -35 6 C-35 5.67 -35 5.34 -35 5 C-34.35450195 4.97494385 -33.70900391 4.9498877 -33.04394531 4.92407227 C-30.11244106 4.80785567 -27.18123783 4.68524558 -24.25 4.5625 C-23.23421875 4.52318359 -22.2184375 4.48386719 -21.171875 4.44335938 C-19.70234375 4.38051758 -19.70234375 4.38051758 -18.203125 4.31640625 C-17.30239258 4.27974854 -16.40166016 4.24309082 -15.47363281 4.20532227 C-13.15533043 4.0128931 -11.17337584 3.83532644 -9 3 C-8.67 2.01 -8.34 1.02 -8 0 C-4.99093136 -1.24513185 -3.0590674 -0.84653438 0 0 Z " fill="#DB972C" transform="translate(153,300)"/>
<path d="M0 0 C0 0.66 0 1.32 0 2 C-1.98 2 -3.96 2 -6 2 C-6.33 2.99 -6.66 3.98 -7 5 C-8.64551962 5.71727778 -10.31422289 6.38325228 -12 7 C-14.22189824 9.22189824 -14.92598892 11.08482708 -16 14 C-16.66 14 -17.32 14 -18 14 C-18.33 15.65 -18.66 17.3 -19 19 C-19.6640625 17.28125 -19.6640625 17.28125 -20 15 C-17.06717751 8.73743167 -12.66173251 3.78621098 -6.4375 0.75 C-4 0 -4 0 0 0 Z " fill="#48ADCD" transform="translate(215,195)"/>
<path d="M0 0 C0.99 0.33 1.98 0.66 3 1 C1.43216484 5.23315493 -1.38306504 7.42641166 -5 10 C-8.375 10.8125 -8.375 10.8125 -11 11 C-11 10.34 -11 9.68 -11 9 C-6.64705882 5 -6.64705882 5 -3 5 C-2.67 4.34 -2.34 3.68 -2 3 C-1.34 3 -0.68 3 0 3 C0 2.01 0 1.02 0 0 Z " fill="#438547" transform="translate(443,294)"/>
<path d="M0 0 C0.33 0 0.66 0 1 0 C0.67 8.25 0.34 16.5 0 25 C-0.33 25 -0.66 25 -1 25 C-2.28375362 16.17419386 -2.50761011 8.61990974 0 0 Z " fill="#314F65" transform="translate(341,63)"/>
<path d="M0 0 C-0.33 1.98 -0.66 3.96 -1 6 C-0.01 6 0.98 6 2 6 C2 6.99 2 7.98 2 9 C-1.67420866 8.69381595 -2.78135513 8.24228216 -5.3125 5.4375 C-5.869375 4.633125 -6.42625 3.82875 -7 3 C-2.25 0 -2.25 0 0 0 Z " fill="#E89618" transform="translate(62,294)"/>
<path d="M0 0 C0.66 0 1.32 0 2 0 C1.52389341 4.99911924 -0.03162219 7.97832683 -3 12 C-3.625 10.1875 -3.625 10.1875 -4 8 C-3.34 7.01 -2.68 6.02 -2 5 C-1.34 5 -0.68 5 0 5 C0 3.35 0 1.7 0 0 Z " fill="#45AFD0" transform="translate(303,286)"/>
<path d="M0 0 C0.99 0 1.98 0 3 0 C1.83857315 4.35535069 0.92300495 6.64619703 -3 9 C-2.25 2.25 -2.25 2.25 0 0 Z " fill="#E49421" transform="translate(156,290)"/>
<path d="M0 0 C-3.60957611 3.2910841 -6.12637153 4.54663921 -11 5 C-4.83050847 -1.61016949 -4.83050847 -1.61016949 0 0 Z " fill="#DF962E" transform="translate(68,196)"/>
<path d="M0 0 C3.64775386 3.88309282 4.58525633 6.71201818 5 12 C4.67 11.34 4.34 10.68 4 10 C3.34 10 2.68 10 2 10 C1.67 8.35 1.34 6.7 1 5 C0.67 5 0.34 5 0 5 C0 3.35 0 1.7 0 0 Z " fill="#2EA8BE" transform="translate(155,58)"/>
<path d="M0 0 C-3.06117568 2.62386487 -3.73173127 3 -8 3 C-8 2.01 -8 1.02 -8 0 C-4.94736336 -0.98120464 -3.05263664 -0.98120464 0 0 Z " fill="#E59426" transform="translate(153,300)"/>
<path d="M0 0 C-1.75 1.5625 -1.75 1.5625 -4 3 C-6.25 2.6875 -6.25 2.6875 -8 2 C-8 1.34 -8 0.68 -8 0 C-4.94736336 -0.98120464 -3.05263664 -0.98120464 0 0 Z " fill="#41B2D3" transform="translate(298,300)"/>
<path d="M0 0 C0.99 0.33 1.98 0.66 3 1 C1.60667426 4.36720387 0.0210714 5.9859524 -3 8 C-2.67 6.35 -2.34 4.7 -2 3 C-1.34 3 -0.68 3 0 3 C0 2.01 0 1.02 0 0 Z " fill="#4C894F" transform="translate(443,294)"/>
<path d="M0 0 C5.78461538 4.43076923 5.78461538 4.43076923 6.875 7.3125 C6.936875 8.1478125 6.936875 8.1478125 7 9 C6.34 8.67 5.68 8.34 5 8 C5 7.34 5 6.68 5 6 C3.68 5.67 2.36 5.34 1 5 C0.67 3.35 0.34 1.7 0 0 Z " fill="#43ACD0" transform="translate(296,199)"/>
<path d="M0 0 C0.33 0 0.66 0 1 0 C1.76173392 4.3164922 2.16063604 7.74433453 1 12 C0.67 12 0.34 12 0 12 C-0.19401633 10.18818595 -0.38004375 8.37551468 -0.5625 6.5625 C-0.66691406 5.55316406 -0.77132813 4.54382813 -0.87890625 3.50390625 C-0.91886719 2.67761719 -0.95882813 1.85132813 -1 1 C-0.67 0.67 -0.34 0.34 0 0 Z " fill="#546E85" transform="translate(340,132)"/>
<path d="M0 0 C0.33 1.32 0.66 2.64 1 4 C0.01 4 -0.98 4 -2 4 C-2.66 5.65 -3.32 7.3 -4 9 C-4.33 8.34 -4.66 7.68 -5 7 C-1.125 1.125 -1.125 1.125 0 0 Z " fill="#E5932F" transform="translate(56,201)"/>
<path d="M0 0 C0.66 0.33 1.32 0.66 2 1 C0.02 3.31 -1.96 5.62 -4 8 C-4.66 7.67 -5.32 7.34 -6 7 C-4.02 4.69 -2.04 2.38 0 0 Z " fill="#46647D" transform="translate(348,54)"/>
</svg>
